<?xml version="1.0" encoding="UTF-8" standalone="no"?>
<svg
   xmlns:dc="http://purl.org/dc/elements/1.1/"
   xmlns:cc="http://creativecommons.org/ns#"
   xmlns:rdf="http://www.w3.org/1999/02/22-rdf-syntax-ns#"
   xmlns:svg="http://www.w3.org/2000/svg"
   xmlns="http://www.w3.org/2000/svg"
   xmlns:sodipodi="http://sodipodi.sourceforge.net/DTD/sodipodi-0.dtd"
   xmlns:inkscape="http://www.inkscape.org/namespaces/inkscape"
   height="2500"
   viewBox="2.167 .438 251.038 259.969"
   width="2500"
   version="1.1"
   id="svg12"
   sodipodi:docname="amazon.svg"
   inkscape:version="0.92.5 (2060ec1f9f, 2020-04-08)">
  <metadata
     id="metadata18">
    <rdf:RDF>
      <cc:Work
         rdf:about="">
        <dc:format>image/svg+xml</dc:format>
        <dc:type
           rdf:resource="http://purl.org/dc/dcmitype/StillImage" />
        <dc:title></dc:title>
      </cc:Work>
    </rdf:RDF>
  </metadata>
  <defs
     id="defs16" />
  <sodipodi:namedview
     pagecolor="#ffffff"
     bordercolor="#666666"
     borderopacity="1"
     objecttolerance="10"
     gridtolerance="10"
     guidetolerance="10"
     inkscape:pageopacity="0"
     inkscape:pageshadow="2"
     inkscape:window-width="1920"
     inkscape:window-height="1024"
     id="namedview14"
     showgrid="false"
     inkscape:pagecheckerboard="true"
     inkscape:zoom="0.26700352"
     inkscape:cx="2368.7075"
     inkscape:cy="1419.2867"
     inkscape:window-x="0"
     inkscape:window-y="32"
     inkscape:window-maximized="1"
     inkscape:current-layer="g10" />
  <g
     id="g10"
     style="fill:none;fill-rule:evenodd">
    <path
       d="m 221.503,210.324 c -105.235,50.083 -170.545,8.18 -212.352,-17.271 -2.587,-1.604 -6.984,0.375 -3.169,4.757 13.928,16.888 59.573,57.593 119.153,57.593 59.621,0 95.09,-32.532 99.527,-38.207 4.407,-5.627 1.294,-8.731 -3.16,-6.872 z m 29.555,-16.322 c -2.826,-3.68 -17.184,-4.366 -26.22,-3.256 -9.05,1.078 -22.634,6.609 -21.453,9.93 0.606,1.244 1.843,0.686 8.06,0.127 6.234,-0.622 23.698,-2.826 27.337,1.931 3.656,4.79 -5.57,27.608 -7.255,31.288 -1.628,3.68 0.622,4.629 3.68,2.178 3.016,-2.45 8.476,-8.795 12.14,-17.774 3.639,-9.028 5.858,-21.622 3.71,-24.424 z"
       id="path2"
       inkscape:connector-curvature="0"
       style="display:inline;fill:#ff9900;fill-rule:nonzero" />
    <path
       d="m 150.744,118.64546 c 0,13.141 0.332,24.1 -6.31,35.77 -5.361,9.489 -13.853,15.324 -23.341,15.324 -12.952,0 -20.495,-9.868 -20.495,-24.432 0,-28.75 25.76,-33.968 50.146,-33.968 z m 34.015,82.216 c -2.23,1.992 -5.456,2.135 -7.97,0.806 -11.196,-9.298 -13.189,-13.615 -19.356,-22.487 -18.502,18.882 -31.596,24.527 -55.601,24.527 -28.37,0 -50.478,-17.506 -50.478,-52.565 0,-27.373 14.85,-46.018 35.96,-55.125999 18.313,-8.066 43.884,-9.489 63.43,-11.718 v -4.365 c 0,-8.018 0.616,-17.506 -4.08,-24.432 -4.128,-6.215 -12.003,-8.777 -18.93,-8.777 -12.856,0 -24.337,6.594 -27.136,20.257 -0.57,3.037 -2.799,6.026 -5.835,6.168 l -32.735,-3.51 c -2.751,-0.618 -5.787,-2.847 -5.028,-7.07 7.543,-39.66 43.36,-51.616 75.43,-51.616 16.415,0 37.858,4.365 50.81,16.795 16.415,15.323 14.849,35.77 14.849,58.02 v 52.564999 c 0,15.798 6.547,22.724 12.714,31.264 2.182,3.036 2.657,6.69 -0.095,8.966 -6.879,5.74 -19.119,16.415 -25.855,22.393 l -0.095,-0.095"
       id="path4"
       inkscape:connector-curvature="0"
       style="display:inline;fill:#cccccc" />
    <path
       d="m 221.503,210.324 c -105.235,50.083 -170.545,8.18 -212.352,-17.271 -2.587,-1.604 -6.984,0.375 -3.169,4.757 13.928,16.888 59.573,57.593 119.153,57.593 59.621,0 95.09,-32.532 99.527,-38.207 4.407,-5.627 1.294,-8.731 -3.16,-6.872 z m 29.555,-16.322 c -2.826,-3.68 -17.184,-4.366 -26.22,-3.256 -9.05,1.078 -22.634,6.609 -21.453,9.93 0.606,1.244 1.843,0.686 8.06,0.127 6.234,-0.622 23.698,-2.826 27.337,1.931 3.656,4.79 -5.57,27.608 -7.255,31.288 -1.628,3.68 0.622,4.629 3.68,2.178 3.016,-2.45 8.476,-8.795 12.14,-17.774 3.639,-9.028 5.858,-21.622 3.71,-24.424 z"
       id="path6"
       inkscape:connector-curvature="0"
       style="display:none;fill:#ff9900;fill-rule:nonzero" />
    <path
       d="m 150.744,118.64546 c 0,13.141 0.332,24.1 -6.31,35.77 -5.361,9.489 -13.853,15.324 -23.341,15.324 -12.952,0 -20.495,-9.868 -20.495,-24.432 0,-28.75 25.76,-33.968 50.146,-33.968 z m 34.015,82.216 c -2.23,1.992 -5.456,2.135 -7.97,0.806 -11.196,-9.298 -13.189,-13.615 -19.356,-22.487 -18.502,18.882 -31.596,24.527 -55.601,24.527 -28.37,0 -50.478,-17.506 -50.478,-52.565 0,-27.373 14.85,-46.018 35.96,-55.125999 18.313,-8.066 43.884,-9.489 63.43,-11.718 v -4.365 c 0,-8.018 0.616,-17.506 -4.08,-24.432 -4.128,-6.215 -12.003,-8.777 -18.93,-8.777 -12.856,0 -24.337,6.594 -27.136,20.257 -0.57,3.037 -2.799,6.026 -5.835,6.168 l -32.735,-3.51 c -2.751,-0.618 -5.787,-2.847 -5.028,-7.07 7.543,-39.66 43.36,-51.616 75.43,-51.616 16.415,0 37.858,4.365 50.81,16.795 16.415,15.323 14.849,35.77 14.849,58.02 v 52.564999 c 0,15.798 6.547,22.724 12.714,31.264 2.182,3.036 2.657,6.69 -0.095,8.966 -6.879,5.74 -19.119,16.415 -25.855,22.393 l -0.095,-0.095"
       id="path8"
       inkscape:connector-curvature="0"
       style="fill:#cccccc" />
  </g>
</svg>
