<?xml version="1.0" encoding="UTF-8" standalone="no"?>
<svg
   xmlns:dc="http://purl.org/dc/elements/1.1/"
   xmlns:cc="http://creativecommons.org/ns#"
   xmlns:rdf="http://www.w3.org/1999/02/22-rdf-syntax-ns#"
   xmlns:svg="http://www.w3.org/2000/svg"
   xmlns="http://www.w3.org/2000/svg"
   xmlns:sodipodi="http://sodipodi.sourceforge.net/DTD/sodipodi-0.dtd"
   xmlns:inkscape="http://www.inkscape.org/namespaces/inkscape"
   id="svg3706"
   version="1.1"
   viewBox="0 0 16.933333 16.933334"
   height="64"
   width="64"
   sodipodi:docname="contact-gray.svg"
   inkscape:version="0.92.1 r15371">
  <sodipodi:namedview
     pagecolor="#ffffff"
     bordercolor="#666666"
     borderopacity="1"
     objecttolerance="10"
     gridtolerance="10"
     guidetolerance="10"
     inkscape:pageopacity="0"
     inkscape:pageshadow="2"
     inkscape:window-width="1680"
     inkscape:window-height="953"
     id="namedview9"
     showgrid="false"
     inkscape:pagecheckerboard="true"
     inkscape:zoom="3.9664271"
     inkscape:cx="-14.421358"
     inkscape:cy="50.18122"
     inkscape:window-x="0"
     inkscape:window-y="27"
     inkscape:window-maximized="1"
     inkscape:current-layer="layer1" />
  <defs
     id="defs3700" />
  <metadata
     id="metadata3703">
    <rdf:RDF>
      <cc:Work
         rdf:about="">
        <dc:format>image/svg+xml</dc:format>
        <dc:type
           rdf:resource="http://purl.org/dc/dcmitype/StillImage" />
        <dc:title></dc:title>
      </cc:Work>
    </rdf:RDF>
  </metadata>
  <g
     transform="translate(0,-280.06665)"
     id="layer1"
     style="display:inline">
    <path
       style="display:none;opacity:1;fill:#a9a9a9;fill-opacity:1;fill-rule:nonzero;stroke:none;stroke-width:0.22623144;stroke-miterlimit:4;stroke-dasharray:none;stroke-opacity:1"
       d="M 31.642578,1.6230469 A 30.198638,30.198638 0 0 0 1.4453125,31.822266 30.198638,30.198638 0 0 0 31.642578,62.019531 30.198638,30.198638 0 0 0 61.841797,31.822266 30.198638,30.198638 0 0 0 31.642578,1.6230469 Z M 31.6875,4.0117188 A 27.766014,27.766014 0 0 1 59.453125,31.777344 27.766014,27.766014 0 0 1 31.6875,59.542969 27.766014,27.766014 0 0 1 3.921875,31.777344 27.766014,27.766014 0 0 1 31.6875,4.0117188 Z"
       transform="matrix(0.26458334,0,0,0.26458334,0,280.06665)"
       id="path3728"
       inkscape:connector-curvature="0" />
    <path
       id="path3688"
       d="m 14.017559,294.04834 c -0.08344,-0.30334 -0.277683,-0.60502 -0.588108,-0.91334 -0.344349,-0.34204 -0.851676,-0.66178 -1.516456,-0.95577 -0.319316,-0.1412 -0.522758,-0.22025 -1.263238,-0.49088 -0.330145,-0.12066 -0.636548,-0.23762 -0.6808961,-0.25991 -0.2297151,-0.11547 -0.2822903,-0.26935 -0.2884318,-0.84423 l -0.00371,-0.35084 0.1348538,-0.13296 c 0.183619,-0.18106 0.2901551,-0.39476 0.3880961,-0.77856 0.04394,-0.17217 0.09159,-0.45805 0.09169,-0.55008 7.1e-5,-0.0592 0.0078,-0.0708 0.06726,-0.10119 0.180976,-0.0925 0.29546,-0.29281 0.34514,-0.60379 0.01089,-0.0681 0.05875,-0.21661 0.106408,-0.33003 0.130744,-0.31121 0.164654,-0.44571 0.133104,-0.52792 -0.01373,-0.0359 -0.09888,-0.0815 -0.151896,-0.0815 -0.03836,0 -0.03911,-0.005 -0.02894,-0.15679 0.0057,-0.0862 0.03965,-0.29386 0.07533,-0.46139 0.17959,-0.84288 0.216833,-1.09638 0.201344,-1.37045 -0.01289,-0.22805 -0.06169,-0.35848 -0.175817,-0.46992 -0.06454,-0.0631 -0.112692,-0.0919 -0.190271,-0.11403 -0.251448,-0.0718 -0.501191,-0.24441 -0.631659,-0.43654 -0.1646611,-0.24247 -0.3732224,-0.34075 -0.7243164,-0.34133 -0.1369665,-2.4e-4 -0.2028154,-0.0128 -0.4733315,-0.0904 -0.6241165,-0.17896 -0.8108373,-0.18497 -1.2041927,-0.0388 -0.1330426,0.0494 -0.3305922,0.12683 -0.4389971,0.17193 -0.1369458,0.057 -0.2224498,0.0821 -0.2801558,0.0822 -0.1996234,3.3e-4 -0.3502955,0.0946 -0.4866427,0.30414 -0.094557,0.14534 -0.1955558,0.22174 -0.4231283,0.32 -0.1524527,0.0659 -0.1940923,0.0934 -0.2771464,0.18305 -0.1126544,0.12167 -0.1639386,0.24012 -0.1923142,0.44413 -0.033455,0.24055 0.00299,0.50676 0.1563651,1.14077 0.1074328,0.44422 0.1501283,0.66141 0.1501664,0.76388 1.83e-5,0.0618 -0.00332,0.0653 -0.071341,0.0762 -0.1640903,0.0263 -0.1656094,0.16074 -0.00632,0.55759 0.064302,0.16018 0.1202094,0.33394 0.1383727,0.43005 0.052074,0.27553 0.1662206,0.47019 0.3150787,0.53731 0.079717,0.0359 0.082167,0.0418 0.09874,0.23317 0.046422,0.53612 0.2806107,1.10014 0.5279702,1.27155 l 0.072603,0.0503 -6.226e-4,0.33353 c -6.699e-4,0.36426 -0.026198,0.56222 -0.089231,0.69243 -0.067075,0.13857 -0.2903283,0.25085 -0.9459932,0.47577 -1.3075935,0.44856 -2.1602238,0.8879 -2.6885758,1.38537 -0.1203448,0.11332 -0.3686164,0.40571 -0.4321403,0.50896 -0.031372,0.051 -0.084258,0.15919 -0.1175252,0.24046 -0.033269,0.0813 -0.067952,0.15027 -0.077076,0.1533 -0.021441,0.008 -0.3591726,-0.37011 -0.5536609,-0.61845 -0.1669701,-0.2132 -0.4738671,-0.66934 -0.59993,-0.89167 -0.51665502,-0.91117 -0.86117873,-1.95913 -0.99878279,-3.03805 -0.12791621,-1.00294 -0.068409,-1.99134 0.17848466,-2.96457 0.69849513,-2.7534 2.82260203,-4.94875 5.54561133,-5.73162 0.7681823,-0.22085 1.3831798,-0.30491 2.2308277,-0.30491 0.5705361,0 0.8632345,0.0217 1.3169943,0.098 2.8715318,0.48241 5.2408408,2.45979 6.2343128,5.20308 0.398223,1.09962 0.550049,2.34454 0.429501,3.52174 -0.175998,1.71868 -0.892501,3.31057 -2.085283,4.63298 -0.110558,0.12258 -0.207241,0.22286 -0.214852,0.22286 -0.0077,0 -0.02437,-0.0383 -0.03725,-0.0851 z"
       style="display:none;fill:#e88e5f;stroke-width:0.01791829"
       inkscape:connector-curvature="0" />
    <path
       id="path3684"
       d="m 13.661605,293.34565 c -0.288252,-0.36595 -0.745032,-0.70422 -1.379634,-1.02166 -0.440436,-0.22032 -0.675503,-0.31483 -1.918909,-0.77149 -0.4024291,-0.14779 -0.4858191,-0.19094 -0.5461201,-0.28248 -0.080561,-0.1223 -0.1023268,-0.25066 -0.1115062,-0.65752 l -0.00845,-0.37626 0.086634,-0.0631 c 0.2609963,-0.18978 0.4479043,-0.67292 0.5353663,-1.38389 0.0064,-0.0522 0.01944,-0.0852 0.03356,-0.0852 0.0127,0 0.05693,-0.0245 0.09831,-0.0545 0.133375,-0.0966 0.234961,-0.29859 0.272459,-0.5417 0.01203,-0.078 0.06186,-0.2332 0.125374,-0.39055 0.126697,-0.31379 0.151696,-0.42358 0.115939,-0.50916 -0.02822,-0.0674 -0.07438,-0.0988 -0.145756,-0.0988 h -0.04829 l 0.01278,-0.12992 c 0.0123,-0.12509 0.05504,-0.34834 0.168959,-0.88248 0.07972,-0.37383 0.10959,-0.60659 0.10959,-0.85413 0,-0.2572 -0.02893,-0.39416 -0.109945,-0.52039 -0.06497,-0.10128 -0.129659,-0.1439 -0.321097,-0.21158 -0.261839,-0.0926 -0.433576,-0.21826 -0.572045,-0.41857 -0.09911,-0.14338 -0.2175333,-0.23914 -0.3587046,-0.29012 -0.048057,-0.0173 -0.1819805,-0.0353 -0.3314876,-0.0442 -0.1905277,-0.0114 -0.2853292,-0.0263 -0.3942023,-0.0614 -0.4252758,-0.13778 -0.7863307,-0.19824 -1.0114518,-0.16937 -0.1193785,0.0153 -0.403024,0.11227 -0.7266216,0.24838 -0.1194433,0.0503 -0.2343738,0.0837 -0.3447221,0.10047 -0.091046,0.0138 -0.1958679,0.0408 -0.2329376,0.06 -0.084988,0.0438 -0.1794595,0.14273 -0.2635472,0.27578 -0.080282,0.12703 -0.1628808,0.18855 -0.3663503,0.2729 -0.1991171,0.0826 -0.3177002,0.17203 -0.3923054,0.2961 -0.099424,0.16533 -0.120367,0.2624 -0.119698,0.55485 6.707e-4,0.30128 0.020437,0.42358 0.1620066,1.00341 0.1026637,0.42048 0.1596916,0.72396 0.141554,0.7533 -0.00581,0.01 -0.029212,0.0172 -0.051943,0.0172 -0.063472,0 -0.1328781,0.0652 -0.1464142,0.13718 -0.015465,0.0825 0.022231,0.21751 0.136578,0.48937 0.05498,0.13071 0.099667,0.27146 0.1160836,0.3656 0.043167,0.24755 0.122851,0.41619 0.2489626,0.52692 0.035846,0.0315 0.084199,0.062 0.1074569,0.0678 0.037919,0.01 0.043573,0.0239 0.054714,0.13914 0.06031,0.62386 0.3140807,1.2326 0.5697966,1.36681 l 0.049277,0.0258 -6.228e-4,0.228 c -0.00116,0.4544 -0.04491,0.71937 -0.1366377,0.82838 -0.069682,0.0829 -0.4253862,0.24698 -0.8482647,0.39149 -1.4405073,0.49227 -2.2289957,0.90748 -2.7998157,1.47438 l -0.2464844,0.24487 -0.1323144,-0.1577 c -0.9884901,-1.17816 -1.5551493,-2.53063 -1.7154234,-4.0943 -0.032361,-0.3157 -0.027621,-1.07033 0.00884,-1.40657 0.2239501,-2.06547 1.2396082,-3.87522 2.8735539,-5.12022 2.1210575,-1.61615 4.9657387,-1.95688 7.4211136,-0.88888 1.700316,0.73959 3.092354,2.13826 3.821741,3.83998 1.023504,2.38789 0.717207,5.14677 -0.803182,7.23443 -0.153871,0.21128 -0.447911,0.56983 -0.529921,0.64618 l -0.04334,0.0403 z"
       style="display:none;fill:#696969;fill-opacity:1;stroke-width:0.01791829"
       inkscape:connector-curvature="0" />
    <path
       style="opacity:1;fill:#696969;fill-opacity:1;fill-rule:nonzero;stroke:none;stroke-width:0.00398184;stroke-miterlimit:4;stroke-dasharray:none;stroke-opacity:1"
       d="m 8.3606832,281.21034 a 7.2568559,7.2568559 0 0 0 -7.2568454,7.25684 7.2568559,7.2568559 0 0 0 2.1924124,5.18752 c 0.4444599,-1.2621 1.2529039,-2.32804 2.319247,-3.02482 l 0.2274142,-0.14857 0.1179458,0.10429 c 0.9845649,0.87073 2.27421,1.13369 3.4700644,0.70752 0.4041407,-0.14404 0.8696744,-0.42487 1.1755504,-0.70916 l 0.109839,-0.10207 0.133584,0.0805 c 0.708093,0.42696 1.376676,1.11203 1.866147,1.91211 0.180936,0.29577 0.474756,0.92759 0.589811,1.26832 0.0023,0.007 0.0046,0.0143 0.0069,0.0213 a 7.2568559,7.2568559 0 0 0 2.304762,-5.297 7.2568559,7.2568559 0 0 0 -7.2568464,-7.25685 z m -0.1246952,3.08458 c 0.05304,-4.7e-4 0.1065668,3.9e-4 0.1605809,0.003 0.4792328,0.0199 0.7787284,0.1006 1.2010241,0.32376 0.597536,0.31575 1.055472,0.81302 1.358354,1.4751 0.328176,0.71736 0.393399,1.57383 0.180664,2.37197 -0.254753,0.95577 -0.982146,1.78127 -1.8698509,2.12203 -0.3716012,0.14266 -0.909859,0.20967 -1.3021383,0.16219 -1.2657859,-0.15322 -2.2924958,-1.14502 -2.5846049,-2.4967 -0.072532,-0.33563 -0.090039,-0.87326 -0.039917,-1.22638 0.09724,-0.68509 0.3804605,-1.28642 0.8427826,-1.78939 0.5717567,-0.62203 1.2575233,-0.93771 2.0531073,-0.94521 z"
       id="path4534"
       inkscape:connector-curvature="0" />
    <path
       inkscape:connector-curvature="0"
       style="display:inline;opacity:1;fill:#a9a9a9;fill-opacity:1;fill-rule:nonzero;stroke:none;stroke-width:0.00438003;stroke-miterlimit:4;stroke-dasharray:none;stroke-opacity:1"
       d="m 8.372099,280.49608 a 7.9825414,7.9825414 0 0 0 -7.98254644,7.98255 7.9825414,7.9825414 0 0 0 7.98254644,7.9825 7.9825414,7.9825414 0 0 0 7.982546,-7.9825 7.9825414,7.9825414 0 0 0 -7.982546,-7.98255 z m -0.022839,0.72566 a 7.2568559,7.2568559 0 0 1 7.256845,7.25689 7.2568559,7.2568559 0 0 1 -7.256845,7.25684 7.2568559,7.2568559 0 0 1 -7.2568454,-7.25684 7.2568559,7.2568559 0 0 1 7.2568454,-7.25689 z"
       id="path4534-0-6" />
  </g>
</svg>
