<?xml version="1.0" encoding="UTF-8" standalone="no"?>
<!-- Svg Vector Icons : http://www.onlinewebfonts.com/icon -->

<svg
   version="1.1"
   x="0px"
   y="0px"
   viewBox="0 0 608 461.06"
   enable-background="new 0 0 1000 1000"
   xml:space="preserve"
   id="svg8"
   sodipodi:docname="drop3.svg"
   width="608"
   height="461.06"
   inkscape:version="1.1.2 (0a00cf5339, 2022-02-04)"
   xmlns:inkscape="http://www.inkscape.org/namespaces/inkscape"
   xmlns:sodipodi="http://sodipodi.sourceforge.net/DTD/sodipodi-0.dtd"
   xmlns="http://www.w3.org/2000/svg"
   xmlns:svg="http://www.w3.org/2000/svg"><defs
   id="defs12" /><sodipodi:namedview
   id="namedview10"
   pagecolor="#ffffff"
   bordercolor="#666666"
   borderopacity="1.0"
   inkscape:pageshadow="2"
   inkscape:pageopacity="0.0"
   inkscape:pagecheckerboard="0"
   showgrid="false"
   fit-margin-top="10"
   fit-margin-left="10"
   fit-margin-right="10"
   fit-margin-bottom="10"
   inkscape:zoom="0.727"
   inkscape:cx="277.16644"
   inkscape:cy="230.3989"
   inkscape:window-width="1920"
   inkscape:window-height="1020"
   inkscape:window-x="0"
   inkscape:window-y="32"
   inkscape:window-maximized="1"
   inkscape:current-layer="svg8"
   width="600px" />
<metadata
   id="metadata2"> Svg Vector Icons : http://www.onlinewebfonts.com/icon </metadata>
<g
   id="g6"
   transform="matrix(0.6,0,0,0.6,4,-69.5)"
   style="fill:#4d4d4d"><path
     d="M 881.1,132.5 H 118.9 C 59,132.5 10,181.5 10,241.4 v 517.3 c 0,59.9 49,108.9 108.9,108.9 H 881.1 C 941,867.6 990,818.6 990,758.7 V 241.4 C 990,181.5 941,132.5 881.1,132.5 Z m 68.1,614.8 c 0,54.9 -24.5,79.4 -79.4,79.4 H 130.3 c -54.9,0 -79.4,-24.5 -79.4,-79.4 V 252.7 c 0,-54.9 24.5,-79.4 79.4,-79.4 h 739.5 c 54.9,0 79.4,24.5 79.4,79.4 z M 316.3,418.3 418.3,500 683.7,275.4 887.9,459.2 V 765.5 H 112.1 V 581.7 Z M 193.8,234.6 c -45.1,0 -81.7,36.6 -81.7,81.7 0,45.1 36.6,81.7 81.7,81.7 45.1,0 81.7,-36.6 81.7,-81.7 0,-45.1 -36.6,-81.7 -81.7,-81.7 z"
     id="path4"
     style="fill:#4d4d4d" /></g>
</svg>
