<?xml version="1.0" encoding="UTF-8" standalone="no"?>
<!-- Created with Inkscape (http://www.inkscape.org/) -->

<svg
   xmlns:dc="http://purl.org/dc/elements/1.1/"
   xmlns:cc="http://creativecommons.org/ns#"
   xmlns:rdf="http://www.w3.org/1999/02/22-rdf-syntax-ns#"
   xmlns:svg="http://www.w3.org/2000/svg"
   xmlns="http://www.w3.org/2000/svg"
   xmlns:sodipodi="http://sodipodi.sourceforge.net/DTD/sodipodi-0.dtd"
   xmlns:inkscape="http://www.inkscape.org/namespaces/inkscape"
   version="1.1"
   id="svg2"
   width="512"
   height="512"
   viewBox="0 0 512 512"
   sodipodi:docname="k8s.svg"
   inkscape:version="0.92.5 (2060ec1f9f, 2020-04-08)">
  <metadata
     id="metadata8">
    <rdf:RDF>
      <cc:Work
         rdf:about="">
        <dc:format>image/svg+xml</dc:format>
        <dc:type
           rdf:resource="http://purl.org/dc/dcmitype/StillImage" />
        <dc:title></dc:title>
      </cc:Work>
    </rdf:RDF>
  </metadata>
  <defs
     id="defs6" />
  <sodipodi:namedview
     pagecolor="#ffffff"
     bordercolor="#666666"
     borderopacity="1"
     objecttolerance="10"
     gridtolerance="10"
     guidetolerance="10"
     inkscape:pageopacity="0"
     inkscape:pageshadow="2"
     inkscape:window-width="1920"
     inkscape:window-height="1024"
     id="namedview4"
     showgrid="false"
     inkscape:zoom="1.3037281"
     inkscape:cx="438.72496"
     inkscape:cy="212.65097"
     inkscape:window-x="0"
     inkscape:window-y="32"
     inkscape:window-maximized="1"
     inkscape:current-layer="svg2" />
  <g
     id="g817">
    <path
       style="display:none;fill:#fdfefe"
       d="M 0,256 V 0 H 256 512 V 256 512 H 256 0 Z"
       id="path833"
       inkscape:connector-curvature="0" />
    <path
       style="display:inline;fill:#c8d8f7"
       d="M 155.7302,479.57985 C 150.31459,477.35282 143.76217,473.11161 141.5,470.369 111.44279,433.92828 27.805655,328.4369 26,324.68905 21.022804,314.35828 21.238495,313.02469 43.821536,214.5 c 11.093861,-48.4 20.892823,-89.63664 21.775473,-91.63699 0.882649,-2.00034 3.696906,-5.69397 6.253904,-8.20806 4.061742,-3.99359 15.134944,-9.6592 87.649087,-44.845649 L 242.5,29.534735 254,29.517367 265.5,29.5 348,69.401996 c 45.375,21.946098 84.32574,41.145524 86.5572,42.665384 5.42104,3.69232 10.55658,9.54036 12.67422,14.43262 0.95228,2.2 10.7715,43.375 21.82048,91.5 22.37086,97.4386 22.07446,95.54518 16.75848,107.0547 -2.65897,5.75686 -109.89629,140.4305 -118.73024,149.10699 -8.40993,8.26002 -2.49196,7.84154 -110.51164,7.81457 l -95.0685,-0.0237 -5.7698,-2.37268 z m 30.17096,-50.02874 c 3.65151,-1.88827 5.29291,-4.53647 8.08931,-13.05111 1.26443,-3.85 3.37938,-9.475 4.69989,-12.5 2.61661,-5.99407 10.11744,-14 13.11672,-14 1.0339,0 4.53777,0.91706 7.78637,2.03791 21.1084,7.28295 49.20764,7.19539 75.05875,-0.2339 l 7.1522,-2.05545 4.20356,3.37572 c 4.95099,3.97594 6.61065,6.99017 11.35715,20.6265 4.15434,11.93511 5.74338,14.6373 9.5299,16.20573 5.78791,2.39743 11.10499,-1.30306 11.10499,-7.72868 0,-3.7337 -1.63948,-7.3073 -6.46743,-14.09714 -8.20936,-11.54532 -10.41985,-17.90446 -9.61782,-27.6686 0.0469,-0.57085 3.00794,-2.95946 6.58011,-5.30803 8.78034,-5.77275 22.27049,-18.71345 29.47487,-28.27438 7.39378,-9.81228 12.46559,-18.81152 17.11558,-30.36925 l 3.61675,-8.98957 4.39897,-0.88527 c 6.72655,-1.35368 10.50519,-0.88114 19.83072,2.47994 4.71254,1.69848 11.08302,3.80122 14.15662,4.67275 5.32867,1.51098 5.74692,1.49235 9,-0.40073 2.29262,-1.33416 3.51385,-2.85509 3.72328,-4.637 0.77033,-6.55428 -5.32085,-10.14512 -19.05876,-11.2354 -11.99829,-0.95223 -19.05619,-2.75113 -22.64634,-5.77204 -1.66796,-1.4035 -3.61048,-2.74442 -4.31672,-2.97983 -0.98024,-0.32675 -1.20626,-3.48486 -0.95528,-13.3474 0.65153,-25.60197 -5.54266,-50.88863 -17.30069,-70.62692 -3.86577,-6.48948 -4.3188,-8.89263 -2.03386,-10.78896 0.825,-0.68469 1.5,-2.04317 1.5,-3.01885 0,-2.48283 5.20228,-6.78012 16.94053,-13.99353 5.54075,-3.40491 10.9708,-7.33073 12.06678,-8.72405 5.89145,-7.48975 -1.959,-17.47395 -10.32305,-13.12886 -1.20134,0.6241 -7.21191,6.0241 -13.35681,12 C 362.81142,174.44404 358.41641,178 356.89845,178 c -1.24105,0 -3.7234,0.53045 -5.51633,1.17879 -3.20601,1.1593 -3.37884,1.06656 -10.4586,-5.61213 -16.9425,-15.98269 -39.68434,-27.05535 -64.59164,-31.44869 l -9.83188,-1.73423 -2.80911,-5.67209 -2.80911,-5.6721 1.13218,-10.76977 c 0.6227,-5.92338 1.37198,-12.68666 1.66507,-15.02952 C 264.70223,95.061247 261.62725,90 255.63486,90 c -7.41721,0 -10.80641,6.310304 -8.68975,16.1793 0.62764,2.92638 1.3972,9.3707 1.71013,14.3207 0.52858,8.36116 0.38006,9.37218 -2.0924,14.24331 -1.75323,3.45414 -3.41233,5.38842 -4.86211,5.66856 -1.2104,0.23389 -5.57573,0.9527 -9.70073,1.59736 -21.91681,3.42521 -47.01177,15.71572 -63.41051,31.05594 l -6.43929,6.02364 -5.32454,-0.70632 c -5.1279,-0.68025 -5.74984,-1.12267 -16.84133,-11.98028 -11.82538,-11.57603 -15.31754,-13.85865 -19.56954,-12.79147 -2.99073,0.75063 -6.41612,4.9043 -6.41105,7.77412 0.006,3.63399 3.67491,8.34742 8.68359,11.15707 11.08272,6.21689 21.50005,13.82566 22.39439,16.35677 0.50553,1.43071 1.36895,3.38269 1.91871,4.33773 1.60572,2.78943 1.26742,3.96723 -4.02968,14.02917 -5.48111,10.41149 -8.88951,19.41592 -12.13624,32.06192 -1.71421,6.67685 -2.15355,11.82863 -2.40069,28.15059 -0.20319,13.41968 -0.66446,20.09877 -1.40511,20.34565 -0.60643,0.20215 -2.3734,1.43684 -3.92659,2.74377 -4.14139,3.48474 -6.83806,4.24614 -19.32691,5.4569 -14.818621,1.43663 -19.524966,3.1324 -21.444648,7.72685 -2.592073,6.2037 1.305571,11.24872 8.69046,11.24872 1.609803,0 6.239312,-1.31582 10.287798,-2.92405 13.13629,-5.2183 18.08457,-6.3001 25.28848,-5.52863 6.34361,0.67935 6.60353,0.81818 8.10122,4.32727 12.65047,29.64004 26.47444,47.91515 47.5968,62.9223 l 8.20468,5.82931 0.11023,4.9369 c 0.13586,6.08464 -2.5418,12.45698 -10.11904,24.08149 -7.72168,11.84611 -8.48553,17.66635 -2.72848,20.79009 3.4761,1.88612 4.68287,1.90338 8.13845,0.11643 z m 48.7493,-56.10037 C 224.91576,371.51598 221,370.06332 221,368.38671 c 0,-2.5881 25.14626,-47.3566 27.75071,-49.40526 3.22423,-2.53618 8.2772,-2.53394 11.50507,0.005 2.68729,2.11383 27.74422,46.70958 27.74422,49.37853 0,1.66787 -5.84535,3.73685 -15.88649,5.62307 -7.50024,1.40892 -29.23916,1.09707 -37.46305,-0.53741 z M 189.94457,352.64789 C 176.58863,341.556 167.1689,329.77535 160.45666,315.76926 c -4.09122,-8.53694 -4.37187,-11.34339 -1.20666,-12.06638 1.2375,-0.28267 13.5,-2.40399 27.25,-4.71405 19.99308,-3.35892 25.55067,-3.98366 27.74954,-3.11939 2.94113,1.15601 6.74057,6.46721 6.74672,9.43117 0.003,1.46152 -15.25121,39.44746 -20.05848,49.94939 -0.69234,1.5125 -1.99902,2.75 -2.90372,2.75 -0.90471,0 -4.54498,-2.40845 -8.08949,-5.35211 z M 309.26728,356.75 c -0.53768,-0.6875 -5.57278,-12.41371 -11.18911,-26.05823 -8.0532,-19.56477 -10.07619,-25.42429 -9.57132,-27.72297 0.8565,-3.89962 5.8318,-7.9688 9.74328,-7.9688 5.79081,0 52.24304,8.30056 53.64693,9.58618 3.60256,3.29907 -9.49932,25.93355 -22.74563,39.29481 C 321.88468,351.21078 313.24891,358 311.19227,358 c -0.52106,0 -1.3873,-0.5625 -1.92499,-1.25 z m -63.49943,-71.30397 c -5.25872,-2.6993 -6.86673,-4.05644 -7.34705,-6.20082 -0.3382,-1.50987 -1.01872,-4.32021 -1.51227,-6.24521 -1.63248,-6.36712 -1.08939,-8.30543 4.13687,-14.76447 L 246.0908,252 l 8.2046,0.0153 c 4.51253,0.008 8.66079,0.34592 9.21835,0.75 1.14823,0.83216 8.7591,10.07076 9.88213,11.99563 0.72451,1.24179 -1.82993,14.73708 -3.1953,16.88103 -1.1262,1.76839 -12.93035,7.36263 -15.42206,7.30885 -1.25319,-0.0271 -5.30799,-1.60421 -9.01067,-3.50479 z m -95.10118,-5.1127 c -1.48872,-1.48872 -0.61031,-21.79575 1.36132,-31.47067 C 155.12007,233.68957 163.11954,215 166.52182,215 c 1.53362,0 37.8823,32.15571 41.39122,36.61658 2.60573,3.31265 2.64927,6.94895 0.13262,11.07636 -1.57937,2.59023 -3.23036,3.5715 -8.74626,5.19836 -45.59539,13.44785 -47.21306,13.86171 -48.63273,12.44203 z M 333.5,274.89012 c -11,-3.25987 -21.75861,-6.40523 -23.90802,-6.98967 -5.73788,-1.5602 -9.59959,-5.83123 -9.56018,-10.57353 0.0175,-2.1048 0.58414,-4.55225 1.25922,-5.43877 3.21323,-4.2196 40.39342,-36.8996 41.70898,-36.66063 2.18594,0.39708 9.55755,15.84856 12.50122,26.20356 2.88015,10.13153 5.18914,30.20055 4.12105,35.81892 -0.94771,4.9852 -1.50819,4.93456 -26.12227,-2.35988 z M 204.25,212.92094 C 189.5492,202.32465 182,196.27757 182,195.09815 c 0,-4.2814 22.00774,-19.10192 35.75462,-24.07798 11.27297,-4.08056 23.08853,-6.57702 24.49097,-5.17458 0.98299,0.98299 -0.29134,35.85478 -1.88573,51.60251 -0.77322,7.63707 -4.18887,11.5628 -10.03294,11.53122 -3.33782,-0.018 -6.67056,-2.07036 -26.07692,-16.05838 z m 68.55893,13.19965 -3.22262,-2.87942 -1.22437,-19.87058 c -1.69703,-27.54154 -1.70077,-37.02659 -0.0148,-37.67354 3.34818,-1.28482 22.68356,4.27305 33.05191,9.50063 12.73853,6.4226 27.29355,18.01299 26.12318,20.80232 -0.57933,1.38071 -16.7154,13.19202 -37.22768,27.25 -9.76063,6.68939 -12.67595,7.16799 -17.48558,2.87059 z"
       id="path831"
       inkscape:connector-curvature="0" />
    <path
       style="display:inline;fill:#b3c8f4"
       d="m 156.5,479.19344 c -7.30755,-3.13328 -10.02321,-4.97575 -14.53148,-9.85903 C 133.22491,459.86348 29.457863,329.88708 27.097662,325.44962 25.420874,322.29706 24.559441,318.75343 24.245409,313.71647 23.832026,307.08594 25.462373,299.19245 44.324827,216.5 55.61596,167 65.324522,125.26595 65.899411,123.75767 c 0.574889,-1.50828 2.958695,-4.81816 5.297348,-7.3553 5.015386,-5.44105 2.458827,-4.128 100.303241,-51.515801 L 242.5,30.5 l 12,1.56e-4 12,1.55e-4 83.42103,40.499845 c 89.89343,43.642114 91.222,44.393764 95.94805,54.283584 1.10815,2.31894 11.0923,43.81538 22.187,92.21431 18.90788,82.48276 20.14184,88.46823 19.68824,95.5 -0.28811,4.46645 -1.30913,9.32278 -2.52335,12.00195 -1.70644,3.76526 -109.81088,139.62124 -118.03959,148.34158 -1.47476,1.56287 -4.48138,3.81287 -6.68138,5 l -4,2.15842 -98,0.20427 c -90.62601,0.18889 -98.30098,0.0752 -102,-1.51083 z m 31.33139,-49.87395 c 2.11233,-1.33392 7.13498,-10.3441 7.15884,-12.8423 0.005,-0.56255 1.3796,-4.61255 3.05384,-9 2.397,-6.2815 4.09189,-8.9661 7.97343,-12.62942 l 4.92936,-4.65223 7.46265,2.36983 c 13.69406,4.34868 25.25432,5.73865 43.00243,5.17048 13.26663,-0.4247 17.8418,-0.9899 26.08806,-3.22277 5.5,-1.48926 10.98108,-2.9354 12.18018,-3.21365 5.62861,-1.30607 13.41373,9.72097 17.85984,25.29715 2.28501,8.00515 5.11366,12.36077 9.11245,14.03157 2.87759,1.20234 3.82757,1.19812 6.76704,-0.0301 7.70786,-3.22055 7.59657,-9.30888 -0.39256,-21.47566 -3.28518,-5.00305 -6.88526,-10.88451 -8.00016,-13.06991 -1.9484,-3.81917 -3.31074,-14.06022 -2.10749,-15.84249 0.31939,-0.47307 3.48895,-2.82065 7.04349,-5.21684 18.81069,-12.6807 37.47499,-36.34608 45.94595,-58.25712 l 3.22981,-8.35424 5.77682,-1.28159 c 5.62585,-1.24809 6.04874,-1.18631 16.18073,2.36386 18.97072,6.6472 20.42929,6.93378 24.68614,4.85039 4.7518,-2.32562 6.31261,-6.25726 4.01147,-10.10473 -2.6447,-4.42188 -6.61316,-6.07321 -17.3396,-7.21525 -16.25395,-1.73056 -20.47295,-2.85478 -24.88445,-6.63086 l -3.97128,-3.39926 -0.12825,-16.23219 c -0.099,-12.53087 -0.62684,-18.5657 -2.3148,-26.46586 -3.1309,-14.65355 -8.53644,-28.89505 -15.73082,-41.44461 l -2.68195,-4.67828 1.87872,-4.69 c 2.20177,-5.49644 5.96146,-8.81024 18.66735,-16.45344 12.91883,-7.77129 16.5677,-14.09905 11.69918,-20.28836 -2.44339,-3.10628 -6.63589,-4.17614 -10.5434,-2.6905 -1.59668,0.60705 -7.88681,5.97366 -13.97808,11.92579 -10.26212,10.02772 -11.4907,10.91509 -16.73812,12.08941 l -5.66309,1.26735 -6.82034,-6.43397 C 324.51479,157.0875 299.09414,144.88648 274.80424,140.9806 l -7.69577,-1.2375 -2.69535,-5.32726 c -2.5373,-5.01489 -2.65386,-5.83859 -1.98782,-14.04717 0.38914,-4.79595 1.16399,-11.1891 1.72188,-14.20701 1.30038,-7.034419 0.38494,-11.76401 -2.85889,-14.77029 -3.7497,-3.475099 -8.61443,-3.219077 -12.49088,0.657371 -3.03742,3.03742 -3.04632,3.079195 -2.39644,11.249999 2.17899,27.39628 2.32745,25.18383 -2.32362,34.6277 -0.44302,0.89953 -4.41929,2.04998 -10.76449,3.11449 -25.05165,4.20282 -47.12134,14.83322 -65.15677,31.38431 l -6.91366,6.34467 -5.31382,-1.37839 c -4.73976,-1.22947 -6.57241,-2.62147 -16.96389,-12.88495 C 127.70534,153.38587 127.16902,153 122.97178,153 117.04592,153 114,155.86938 114,161.45181 c 0,5.19964 1.63432,7.49681 8.22037,11.55438 15.64895,9.64111 21.80905,14.26538 22.43414,16.8409 0.35413,1.4591 1.20189,3.46936 1.88389,4.46724 1.05876,1.54912 0.30745,3.66865 -5.13983,14.5 -10.66622,21.20869 -14.98364,40.76107 -14.0876,63.79872 l 0.51003,13.11305 -4.18454,3.49785 c -5.25055,4.38891 -5.3705,4.42404 -21.51581,6.30213 -17.767001,2.06672 -21.162838,3.94399 -21.088847,11.65818 0.03539,3.6899 1.387151,5.91329 4.652456,7.6524 3.458209,1.84185 6.625085,1.40316 16.542271,-2.29153 14.22007,-5.29775 17.49286,-5.96441 24.26224,-4.94216 6.6579,1.00541 5.61195,-0.25447 12.80099,15.41919 9.90634,21.59796 25.25273,39.7645 44.812,53.04695 l 5.64415,3.83286 -0.20408,6.30284 c -0.21273,6.56963 -1.20632,8.66932 -13.13206,27.75095 -1.87537,3.00067 -3.40977,6.467 -3.40977,7.70295 0,3.8022 2.305,7.56425 5.47576,8.93713 3.23618,1.40121 5.63349,1.07416 9.35563,-1.27635 z M 245,374.38453 c -6.68859,-0.81932 -19.40583,-3.53136 -21.29157,-4.54057 -1.16206,-0.62192 -1.71244,-1.72061 -1.42073,-2.83612 1.03962,-3.97552 24.96549,-46.07177 26.99223,-47.49136 C 250.47073,318.68242 252.81976,318 254.5,318 c 1.68024,0 4.02927,0.68242 5.22007,1.51648 2.02674,1.41959 25.95261,43.51584 26.99223,47.49136 0.2898,1.1082 -0.25342,2.21139 -1.38788,2.81854 -5.41501,2.89802 -30.61904,5.74701 -40.32442,4.55815 z M 189.94457,351.65181 C 177.26032,341.12546 168.83821,330.58793 161.57793,316.16022 155.65197,304.38405 154.48651,305.24555 183,300.32511 c 13.475,-2.32532 25.90181,-4.24973 27.61514,-4.27648 4.15187,-0.0648 8.16227,3.24797 8.93806,7.38326 0.51729,2.7574 -1.08455,7.53824 -9.11572,27.20667 -5.35881,13.12379 -10.17958,24.42394 -10.71283,25.11144 -1.6155,2.08282 -3.06272,1.47638 -9.78008,-4.09819 z M 308.31894,353.25 C 295.99665,323.98558 289,306.24839 289,304.27459 289,300.46269 294.12195,296 298.49696,296 c 5.28606,0 51.83249,7.93568 52.92301,9.02282 2.39861,2.39118 -7.17254,20.21422 -17.64769,32.86285 C 327.70889,345.20714 313.89961,357 311.38965,357 c -0.82044,0 -2.20225,-1.6875 -3.07071,-3.75 z m -61.00686,-67.79411 c -7.79083,-3.55631 -7.48546,-3.09804 -10.17487,-15.26928 -0.92635,-4.19235 -0.81994,-4.48701 3.79218,-10.5 l 4.74528,-6.18661 8.59463,-0.28794 8.59464,-0.28794 5.06803,6.08986 c 5.54763,6.66615 5.60945,6.92344 3.64141,15.15515 -1.74982,7.31893 -1.82212,7.41648 -7.70662,10.39839 -8.78168,4.45001 -8.75526,4.4486 -16.55468,0.88837 z m -96.66368,-10.0044 c -0.73003,-5.32622 0.74021,-21.0036 2.80451,-29.90465 C 156.34155,233.09123 163.89749,216 166.51539,216 c 1.68475,0 39.9425,34.11854 41.48079,36.99286 1.53868,2.87505 1.15755,7.24941 -0.86022,9.87315 -1.45475,1.89163 -6.81358,3.84271 -26.72776,9.73125 -13.69951,4.05088 -25.85953,7.37368 -27.02228,7.38399 -1.75491,0.0156 -2.21999,-0.75401 -2.73752,-4.52976 z M 329.5,272.8993 c -15.06204,-4.41105 -24.80014,-7.77877 -26.14852,-9.04293 -2.86398,-2.6851 -3.51968,-6.68736 -1.69672,-10.35637 1.8998,-3.82368 38.74079,-37 41.08703,-37 1.19325,0 2.94418,2.40994 5.44907,7.5 6.92,14.06178 11.25472,33.86691 10.61511,48.5 -0.29073,6.65132 -0.4305,7.01066 -2.80597,7.21396 -1.375,0.11768 -13.3,-2.94892 -26.5,-6.81466 z M 205,212.52255 C 192.01757,203.20524 183.38227,196.34934 183.20283,195.21693 182.7586,192.41349 196.57152,181.90555 208.5,175.97255 217.4808,171.50566 234.94218,166 240.12822,166 c 1.62909,0 1.87178,0.80918 1.87178,6.24093 0,7.972 -1.93445,43.1932 -2.61547,47.6208 -0.74782,4.86188 -4.42369,8.14368 -9.08908,8.11467 C 227.01082,227.956 223.60639,225.8761 205,212.52255 Z m 67.92308,12.55437 c -2.0322,-2.0322 -2.93393,-3.93703 -2.95867,-6.25 -0.0196,-1.8298 -0.65518,-13.90192 -1.41246,-26.82692 -1.08613,-18.53767 -1.1184,-23.76942 -0.15282,-24.77588 0.99187,-1.03386 2.54021,-0.99589 8.16246,0.20017 17.14009,3.64631 33.8556,12.06225 46.43841,23.38087 4.49371,4.04223 4.49721,4.05064 2.5,6.01944 -1.1,1.08435 -11.21813,8.54242 -22.48473,16.57348 -22.93874,16.35119 -24.72615,17.04489 -30.09219,11.67884 z"
       id="path829"
       inkscape:connector-curvature="0" />
    <path
       style="display:inline;fill:#92b1f0"
       d="m 157.1979,479.03031 c -2.91616,-1.05488 -7.32825,-3.40574 -9.80465,-5.22414 -4.90527,-3.60189 -117.155366,-142.67775 -120.006313,-148.68568 -0.888087,-1.8715 -2.092435,-6.19171 -2.676329,-9.60046 -1.048403,-6.12053 -0.798604,-7.35168 20.055276,-98.84352 19.445391,-85.31241 21.36788,-93.01058 24.28762,-97.25427 1.743894,-2.53467 5.11271,-5.84006 7.486256,-7.34532 2.373547,-1.50526 40.9106,-20.475852 85.63789,-42.156876 L 243.5,30.5 l 11,0.02524 11,0.02524 82.90656,40.254516 c 45.59861,22.139984 84.97361,41.774184 87.5,43.631544 4.45964,3.27866 7.55242,6.779 9.91975,11.22696 0.63331,1.18993 10.23017,41.46493 21.32636,89.5 21.78121,94.29018 22.21643,96.80662 18.56919,107.36824 -1.36128,3.94198 -14.49219,20.94323 -60.62946,78.5 -56.16896,70.07142 -59.15904,73.60697 -64.6708,76.46826 l -5.77895,3 -96.07132,0.22414 c -92.49943,0.2158 -96.26846,0.15282 -101.37343,-1.69383 z m 29.27961,-48.20202 c 3.54578,-1.61556 5.86342,-5.73244 10.07753,-17.90096 4.15008,-11.98361 5.50654,-14.37288 10.74056,-18.91833 l 3.79561,-3.29627 8.70439,2.60669 c 23.16132,6.93609 45.90964,7.34047 69.39651,1.23362 5.11934,-1.33109 10.00431,-2.68825 10.85549,-3.01592 2.09279,-0.80564 9.23596,5.8666 11.73664,10.96288 1.07951,2.2 3.25717,8.03032 4.83925,12.95626 3.31489,10.32121 8.11852,16.54374 12.77133,16.54374 4.65249,0 8.42093,-2.653 9.66457,-6.8039 1.40094,-4.67591 0.25413,-7.79742 -6.47647,-17.62848 C 325.1614,396.72738 323,391.7974 323,385.70976 v -5.35674 l 7.25,-4.92156 c 3.9875,-2.70685 11.54684,-9.19878 16.79853,-14.42651 13.8857,-13.82232 22.83649,-27.87462 31.31684,-49.16591 1.41398,-3.55002 1.65023,-3.6812 7.7964,-4.32898 6.52291,-0.68749 9.59342,0.0445 26.83823,6.39822 8.25216,3.04044 11.54162,2.7501 15.67524,-1.38352 3.95349,-3.95349 3.86132,-6.14326 -0.45253,-10.75164 -3.25882,-3.48133 -6.31796,-4.39452 -19.1863,-5.72732 -13.10556,-1.35737 -17.06649,-2.41757 -20.32924,-5.44139 -1.42299,-1.31877 -3.10963,-2.5719 -3.74811,-2.78472 -0.81728,-0.27243 -1.11874,-4.56804 -1.01854,-14.51348 0.0868,-8.61594 -0.45881,-17.86226 -1.39871,-23.7032 -2.51672,-15.63997 -8.96,-33.84193 -16.45533,-46.48552 l -3.19085,-5.38251 2.64549,-5.2287 c 2.68001,-5.29696 8.03165,-9.50797 22.77155,-17.91808 8.48393,-4.84067 11.44273,-13.92371 6.23278,-19.13365 -5.09715,-5.09716 -12.94438,-2.45223 -20.87573,7.03621 C 367.9875,169.28851 358.2957,177 355.43451,177 c -1.3539,0 -3.30945,0.52946 -4.34566,1.17659 -1.63407,1.02049 -2.72678,0.40828 -8.23643,-4.61459 -18.57244,-16.93152 -43.1231,-28.92567 -67.30335,-32.88082 l -7.95093,-1.30054 -2.38687,-4.44032 c -2.51799,-4.68425 -2.59393,-8.79023 -0.60091,-32.49275 0.55247,-6.57031 0.41535,-7.263565 -2.00573,-10.140853 -1.4293,-1.698632 -3.72127,-3.37016 -5.09326,-3.714507 -3.69504,-0.927397 -9.12147,1.753129 -11.03329,5.450185 -1.7529,3.389721 -1.74732,3.604425 0.60403,23.250985 l 1.29178,10.79337 -2.74556,5.42231 c -2.42101,4.78132 -3.18194,5.4925 -6.43695,6.01604 -18.691,3.00633 -31.36633,6.92201 -44.69138,13.80613 -8.32054,4.29863 -24.85691,16.21072 -29.92205,21.55455 -2.60597,2.74935 -3.36318,3.01807 -7,2.48417 -5.57551,-0.81852 -9.86237,-3.93058 -19.83418,-14.39874 -4.67907,-4.91196 -9.7934,-9.41978 -11.36518,-10.01737 C 120.01499,150.5344 113,154.87426 113,161.23057 c 0,4.48454 2.74318,8.22546 8.74463,11.92521 11.59191,7.14615 20.60755,13.40965 21.36665,14.84422 0.43654,0.825 1.51447,3.13081 2.39538,5.12402 l 1.60166,3.62402 -5.00357,9.37598 c -10.73391,20.11381 -15.23131,39.352 -15.04234,64.34545 0.0851,11.25366 -0.21931,16.08283 -1.0308,16.35333 -0.63334,0.21111 -2.31579,1.46284 -3.73878,2.78161 -3.26275,3.02382 -7.22368,4.08402 -20.32924,5.44139 -5.754975,0.59606 -11.859917,1.51765 -13.56654,2.04799 -4.225871,1.3132 -7.3588,4.89565 -8.059965,9.21642 -0.500055,3.08148 -0.147102,4.03362 2.462678,6.6434 3.892607,3.89261 9.74444,4.10261 17.980367,0.64525 3.14593,-1.32063 9.00585,-3.39659 13.02204,-4.61325 6.70457,-2.03107 7.78629,-2.1047 13.21787,-0.89971 l 5.91571,1.3124 3.10521,7.70331 c 3.86661,9.59217 10.20144,20.78289 16.81442,29.7033 6.43193,8.67621 20.72266,22.48535 29.14641,28.16422 3.57402,2.40942 6.74703,4.7476 7.05113,5.19596 0.30411,0.44835 0.25549,3.68888 -0.10805,7.20117 -0.55671,5.37869 -1.51146,7.75704 -6.05292,15.07829 -2.96557,4.78078 -6.39705,10.34903 -7.6255,12.37389 -3.24234,5.34435 -3.00024,10.60162 0.65663,14.25848 3.13792,3.13793 6.34374,3.66989 10.55443,1.75137 z m 47.11027,-58.79321 c -4.90172,-1.06202 -9.50044,-2.51917 -10.21937,-3.2381 -1.0762,-1.0762 0.9619,-5.44008 11.53535,-24.69898 12.8404,-23.38802 14.81488,-25.98302 19.83046,-26.06256 4.13934,-0.0657 8.12157,5.36884 20.37709,27.80834 9.70512,17.76979 11.91516,22.52336 10.79597,23.22101 -7.13348,4.44668 -37.53835,6.17283 -52.3195,2.97029 z m -40.99901,-18.72444 c -6.82346,-4.95179 -16.37602,-14.74941 -21.76132,-22.31958 -6.63812,-9.33126 -13.56535,-23.65316 -12.13327,-25.08524 1.43319,-1.43319 51.82615,-10.00891 54.1034,-9.20716 3.70706,1.30514 6.20233,4.60987 6.21086,8.22565 0.009,3.93868 -18.66408,50.72957 -20.53116,51.44603 -0.60163,0.23087 -3.25147,-1.14599 -5.88851,-3.0597 z m 117.63747,2.42876 C 307.76251,352.68906 290,307.66019 290,304.46484 c 0,-3.85118 2.53498,-7.05904 6.3313,-8.01185 1.98998,-0.49946 47.40072,6.49972 52.9187,8.15638 6.0913,1.82879 -6.56181,24.05187 -22.71245,39.89063 -10.37372,10.1734 -14.74146,13.18302 -16.31131,11.2394 z m -62.88617,-70.68273 c -6.92011,-3.20346 -7.5226,-4.02951 -9.32255,-12.78173 -1.43872,-6.99575 -1.13439,-7.81917 5.67588,-15.35733 L 247.23272,253 h 7.8252 7.82519 l 4.55844,5.92404 c 4.89994,6.36784 5.17244,7.6851 3.40767,16.47254 l -1.15077,5.73014 -6.82426,3.43664 c -3.75335,1.89015 -7.398,3.41599 -8.09923,3.39075 -0.70123,-0.0252 -4.04693,-1.32909 -7.43489,-2.89744 z m -96.01429,-6.65009 c -1.34086,-3.49422 0.56364,-25.01663 3.07722,-34.7751 2.63966,-10.24793 10.25178,-27.13148 12.23251,-27.13148 1.90419,0 40.24607,34.8186 41.40062,37.59626 1.30964,3.1508 0.43198,7.17013 -2.05766,9.42323 -1.47984,1.33923 -50.40711,16.47874 -53.25985,16.48013 -0.42977,2.1e-4 -1.05654,-0.71666 -1.39284,-1.59304 z m 178.94172,-5.73953 c -13.32788,-3.94188 -25.12805,-7.93959 -26.22261,-8.88381 -2.35337,-2.03013 -3.48966,-5.87499 -2.68443,-9.08331 0.32599,-1.29882 9.34662,-10.24538 20.72218,-20.55203 23.31082,-21.12038 21.40434,-20.67334 27.37164,-6.41822 6.14773,14.68611 7.88621,23.02869 7.97081,38.25002 0.0626,11.26998 -0.17099,13.51042 -1.42509,13.66706 -0.825,0.10304 -12.40463,-3.03783 -25.7325,-6.97971 z M 206.89062,213.38739 C 195.67578,205.35045 185.6,197.89239 184.5,196.81391 c -1.99615,-1.95709 -1.99133,-1.96867 2.5,-6.00875 5.86124,-5.27236 14.01306,-10.78562 21.5,-14.54093 13.08654,-6.56397 33.50098,-11.53464 33.49931,-8.15669 -0.004,8.82635 -3.28151,53.55123 -4.02578,54.94192 -1.46546,2.73823 -5.06528,4.95054 -8.05541,4.95054 -1.79859,0 -9.11924,-4.64548 -23.0275,-14.61261 z m 67.08688,11.88382 -3.2769,-2.92792 -1.29461,-21.92164 c -0.71204,-12.05691 -1.31967,-24.50915 -1.3503,-27.67165 -0.0547,-5.64984 -0.007,-5.75 2.75597,-5.75 5.17832,0 18.59877,4.09341 28.03986,8.55252 13.36648,6.31311 28.07837,17.35329 27.0086,20.26794 -0.69581,1.89575 -42.87445,31.23241 -45.72349,31.80221 -2.25958,0.45192 -3.59013,-0.0561 -6.15913,-2.35146 z"
       id="path827"
       inkscape:connector-curvature="0" />
    <path
       style="display:inline;fill:#6c96eb"
       d="m 158.5,478.95153 c -1.65,-0.48826 -5.475,-2.36459 -8.5,-4.16963 -4.87068,-2.90638 -12.0838,-11.4857 -63.040176,-74.98029 C 55.312728,360.3675 28.58822,326.3925 27.572029,324.30161 26.548455,322.19554 25.522061,317.37797 25.27072,313.5 c -0.41312,-6.37406 1.389692,-15.07781 20.161169,-97.33565 11.338171,-49.68461 21.488818,-92.04876 22.556993,-94.14256 1.068174,-2.09379 3.744459,-5.34962 5.9473,-7.23517 2.509633,-2.14815 34.728328,-18.327359 86.284488,-43.329339 L 242.5,31.556213 253.16846,31.191795 c 10.65935,-0.364106 10.67559,-0.361053 19,3.571632 C 311.89659,53.5321 431.34968,111.86312 434.5,114.03274 c 5.16814,3.55929 7.83677,6.52048 10.33434,11.46726 1.11075,2.2 11.09494,43.6 22.18708,92 22.40149,97.74774 22.15272,96.17335 16.9429,107.22988 -1.47968,3.14023 -25.59944,34.02486 -60.36585,77.29665 -46.90063,58.37456 -58.77521,72.58039 -62.5,74.77012 L 356.5,479.5 259,479.66963 c -54.43219,0.0947 -98.82516,-0.2225 -100.5,-0.7181 z m 29.29774,-48.60999 c 3.24598,-2.04869 5.78674,-6.60332 8.83705,-15.84154 3.74827,-11.35208 6.00464,-15.49549 10.66421,-19.58291 l 4.08445,-3.5829 7.39224,2.34747 c 13.62358,4.32629 24.14372,5.58346 42.22431,5.04584 14.43342,-0.42917 18.04285,-0.8956 28.81847,-3.72412 l 12.31848,-3.23351 1.97048,2.11507 c 1.08376,1.16328 2.39537,2.11506 2.91468,2.11506 1.46308,0 5.41601,8.50612 8.97128,19.30486 3.57495,10.85854 6.41893,15.01605 11.39529,16.6584 C 333.56122,434.00038 340,429.06644 340,422.2994 c 0,-4.00296 -0.54014,-5.14176 -7.49377,-15.7994 -7.29509,-11.18097 -8.19089,-13.21704 -8.71736,-19.81372 l -0.46398,-5.81373 4.58755,-3.11084 c 22.14868,-15.01913 40.52962,-38.07372 49.60719,-62.22059 1.99286,-5.30113 2.66138,-6.11401 5.62112,-6.83489 1.84759,-0.45 4.26942,-1.0509 5.38186,-1.33532 1.84201,-0.47095 10.15971,1.98225 25.84845,7.62368 6.78035,2.4381 10.24106,2.04411 14.65289,-1.6682 3.58378,-3.01555 3.90383,-6.8772 0.88775,-10.71151 -3.33763,-4.24312 -6.83653,-5.43731 -20.64644,-7.04675 -14.44547,-1.6835 -17.16257,-2.46249 -21.59338,-6.19077 l -3.04998,-2.56639 -0.15873,-16.65549 c -0.22756,-23.87808 -4.33228,-40.77967 -15.00322,-61.77729 -4.4681,-8.79205 -5.3339,-11.26173 -4.51474,-12.87819 0.55743,-1.1 1.46638,-3.24988 2.01987,-4.77752 0.93441,-2.57899 5.87721,-6.17109 22.76041,-16.54079 4.88759,-3.00197 7.36428,-6.43209 7.98484,-11.05871 0.93148,-6.94467 -6.53759,-12.65995 -13.223,-10.11816 -1.57307,0.59808 -7.89819,5.96799 -14.05584,11.93315 -10.10138,9.78561 -11.70312,10.95456 -16.38679,11.95902 l -5.19107,1.11329 -7.6551,-6.67638 c -18.79436,-16.39144 -39.6584,-26.45177 -64.15137,-30.93281 l -9.0011,-1.64677 -2.65834,-4.53612 c -2.5055,-4.27531 -2.62068,-5.03006 -2.00331,-13.12716 0.36027,-4.72507 1.15156,-11.45638 1.75842,-14.95847 2.33944,-13.50052 -5.11328,-21.819051 -14.97785,-16.717884 -4.47939,2.31638 -5.52175,5.421498 -4.79126,14.272794 2.06997,25.08177 2.05935,25.63863 -0.57962,30.38656 -2.45642,4.41952 -2.4714,4.42771 -10.29049,5.62841 -24.61049,3.77919 -47.14951,14.51149 -67.11445,31.95757 -6.02669,5.26634 -6.17784,5.33068 -10.97646,4.67296 -4.54966,-0.6236 -5.65649,-1.43535 -17.04395,-12.49994 C 127.58472,152.38312 127.04885,152 122.81772,152 c -2.40499,0 -5.36519,0.69516 -6.57823,1.54481 -2.72799,1.91075 -4.17869,6.99664 -3.09925,10.86532 1.20652,4.32406 4.35316,7.16833 14.61723,13.21259 10.53297,6.20261 16.22801,10.83262 16.27433,13.23087 0.0175,0.90553 0.65845,2.47336 1.42435,3.48408 1.23922,1.63533 0.80095,2.95654 -3.98064,12 -11.04767,20.89455 -16.15719,43.30274 -15.22264,66.76008 l 0.5019,12.59776 -3.33458,2.66072 c -4.80935,3.83747 -7.20855,4.52473 -21.68545,6.2119 -13.529958,1.57681 -17.549408,2.90148 -20.174036,6.64866 -2.420707,3.45605 -2.006009,9.42881 0.853174,12.288 4.801484,4.80148 8.279152,4.53266 26.282372,-2.03159 9.38498,-3.4219 10.72699,-3.66087 16.86662,-3.00337 l 6.67036,0.71434 1.593,4.15791 c 3.72966,9.73484 12.54546,25.76443 18.51439,33.66432 7.80408,10.32872 20.0437,22.19675 29.28613,28.39701 l 6.8484,4.59424 0.12823,5.25118 c 0.14858,6.08464 -1.88288,10.72546 -10.33793,23.61675 -7.93128,12.09268 -8.00626,18.49574 -0.26201,22.37578 3.59178,1.79957 5.84537,1.59253 9.7943,-0.89982 z M 246,373.40274 c -11.49419,-1.33485 -23,-4.08197 -23,-5.49147 0,-1.85509 24.21175,-45.38393 26.2322,-47.16127 2.62989,-2.31345 7.87644,-2.22908 10.44944,0.16803 2.16853,2.02029 26.31836,45.08441 26.31836,46.93105 0,2.98383 -28.2975,6.9127 -40,5.55366 z m -57,-23.68828 c -4.125,-3.45363 -10.46204,-9.96648 -14.08231,-14.47299 -7.21652,-8.98312 -16.62185,-25.96407 -15.70469,-28.35416 0.4281,-1.11562 6.95352,-2.60241 25.00972,-5.69838 26.50594,-4.54479 28.4878,-4.73147 30.86394,-2.90713 2.00123,1.5365 3.91334,5.0796 3.91334,7.25133 0,0.91554 -3.64475,10.50762 -8.09945,21.31574 -11.77436,28.56734 -12.04035,29.15142 -13.27369,29.14802 -0.61977,-0.002 -4.50186,-2.8288 -8.62686,-6.28243 z M 310.30882,354.75 c -0.51483,-0.6875 -5.14573,-11.375 -10.29089,-23.75 -10.21168,-24.56087 -11.16348,-28.84422 -7.13442,-32.10676 1.33764,-1.08315 3.89523,-1.89284 5.97727,-1.89231 4.77905,0.001 50.39157,7.85142 51.38359,8.84344 2.70439,2.70439 -10.21437,24.19716 -21.63728,35.99765 C 322.38088,348.27404 313.17573,356 311.73847,356 c -0.27147,0 -0.91481,-0.5625 -1.42965,-1.25 z m -63.76123,-71.02812 c -5.54528,-3.00152 -6.03983,-3.56386 -7.23071,-8.22188 -2.07704,-8.12423 -1.70853,-10.14769 2.93312,-16.10542 l 4.25,-5.45503 8.37093,0.28023 8.37093,0.28022 4.46732,5.66639 4.46733,5.66639 -1.15712,5.83361 c -0.63642,3.20848 -1.3848,6.63162 -1.66306,7.60698 -0.59668,2.09143 -11.29098,7.73907 -14.57781,7.69851 -1.25319,-0.0155 -4.9571,-1.47796 -8.23093,-3.25 z m -94.87756,-8.36779 c -0.83316,-5.1342 0.98431,-22.68263 3.27808,-31.65118 2.24661,-8.78417 7.46311,-21.75423 10.01889,-24.91048 l 1.77272,-2.18923 3.29741,2.77459 c 11.04735,9.29574 36.88561,32.97849 37.37693,34.25884 1.16369,3.03255 0.54246,6.30017 -1.66406,8.75279 -1.79283,1.99279 -7.18169,3.93438 -26.5219,9.55576 C 165.87856,275.82533 154.34994,279 153.60894,279 c -0.77514,0 -1.5985,-1.54824 -1.93891,-3.64591 z M 330.5,272.13669 c -12.65,-3.72754 -23.96517,-7.2987 -25.14482,-7.93591 -2.75593,-1.48867 -4.55626,-6.54171 -3.40736,-9.56355 C 302.84296,252.28284 341.09294,217 342.75019,217 c 1.09764,0 5.50852,8.78069 8.72742,17.37353 3.8623,10.31044 5.84246,21.36195 5.93545,33.12647 0.0814,10.29688 -0.0409,11.01323 -1.91306,11.20702 -1.1,0.11386 -12.35,-2.84279 -25,-6.57033 z M 206.52657,212.44765 c -10.98539,-7.95627 -20.63807,-15.13058 -21.4504,-15.94291 -1.30262,-1.30262 -1.12869,-1.84308 1.47343,-4.57851 4.43473,-4.66193 18.27547,-13.55752 27.1152,-17.42723 8.143,-3.56472 25.9251,-8.24243 27.05145,-7.11609 0.35516,0.35517 -0.003,12.75796 -0.7955,27.56177 -1.39885,26.12407 -1.51228,26.99162 -3.85532,29.48567 -4.80806,5.11795 -7.3531,4.08554 -29.53886,-11.9827 z m 66.92798,12.0978 c -1.72326,-1.72325 -2.46503,-3.58534 -2.48972,-6.25 -0.0193,-2.0875 -0.65601,-14.14545 -1.41482,-26.79545 -0.75881,-12.65 -1.011,-23.38448 -0.56044,-23.85439 1.52075,-1.58605 21.1457,4.19798 31.45762,9.27146 9.20958,4.53112 22.94657,14.24825 24.78389,17.53137 0.54777,0.97881 -4.882,5.38134 -19.48586,15.79943 -11.13487,7.94338 -21.22814,14.96218 -22.42948,15.59732 -3.48325,1.84158 -7.21124,1.35022 -9.86119,-1.29974 z"
       id="path825"
       inkscape:connector-curvature="0" />
    <path
       style="display:inline;fill:#5585e9"
       d="m 159.28604,478.56416 c -5.76689,-1.8227 -12.16531,-5.73315 -15.91901,-9.72905 C 134.44629,459.33881 29.534696,327.20234 27.797326,323.27473 23.673513,313.95216 23.97845,312.14625 45.911177,216 57.01484,167.325 66.835552,125.77929 67.734981,123.6762 71.336293,115.25543 73.84929,113.85351 161.10401,71.588437 L 243.5,31.676875 254,31.588437 264.5,31.5 347,71.423604 c 45.375,21.957982 84.3427,41.169076 86.59488,42.691316 5.61241,3.79341 9.8502,8.84208 11.77653,14.02995 1.56692,4.21992 39.874,170.2042 41.18407,178.45027 0.65888,4.14722 -0.84879,13.68516 -2.90128,18.35427 -1.07241,2.43955 -110.6034,139.93469 -117.04426,146.9266 -1.71047,1.8568 -5.13494,4.3318 -7.60994,5.5 -4.47999,2.11455 -4.92462,2.12487 -100,2.32201 -77.18341,0.16004 -96.30822,-0.0574 -99.71396,-1.13386 z m 31.49334,-50.17167 c 1.80532,-2.08845 4.00783,-6.29258 4.89447,-9.34252 3.3798,-11.6261 7.17993,-19.37255 11.39247,-23.22318 l 4.11832,-3.76452 8.65768,2.52019 c 24.16392,7.03395 49.06757,7.0566 73.08804,0.0665 l 8.43036,-2.4533 3.74147,3.00673 c 3.94739,3.17221 6.07012,7.30647 10.43753,20.32827 3.60471,10.74773 4.99956,13.21769 8.75883,15.50985 6.03297,3.67853 12.07873,1.9982 15.31289,-4.25597 2.43192,-4.70283 1.22562,-8.61888 -6.03699,-19.59809 -8.01327,-12.11401 -9.42149,-15.35104 -9.32936,-21.44517 l 0.0716,-4.73815 8.09164,-5.8858 c 10.55791,-7.67974 24.70223,-22.42309 31.8675,-33.21713 4.84196,-7.29411 11.04404,-19.32558 15.50127,-30.07103 0.95128,-2.29335 1.89541,-2.76926 6.67966,-3.36701 4.90824,-0.61324 6.79075,-0.25615 15.8075,2.99854 18.59005,6.71028 22.49905,6.92984 27.86384,1.56504 3.39744,-3.39743 3.56642,-5.37424 0.84146,-9.84374 -2.81508,-4.61732 -8.61542,-6.8709 -20.98231,-8.15217 -14.14328,-1.46532 -17.37264,-2.32108 -21.40456,-5.67212 l -3.4383,-2.85771 -0.0722,-14.57378 c -0.12051,-24.32644 -4.89546,-44.33446 -15.3689,-64.39896 L 364.46918,197.5 l 2.2682,-4.71464 c 2.35441,-4.89381 7.2132,-8.81538 19.47341,-15.71718 3.14094,-1.76816 7.07844,-4.7725 8.75,-6.67631 C 401.301,163.17077 397.38366,152 388.51118,152 c -5.22567,0 -6.75259,1.04545 -19.18373,13.13471 C 360.83182,173.3967 357.5216,176 355.51171,176 c -1.45376,0 -3.50153,0.45937 -4.55061,1.02082 -1.60778,0.86046 -3.05058,-0.0307 -9.18426,-5.67306 C 324.72798,155.6647 300.93522,143.9665 278,139.99058 c -10.8827,-1.88657 -11,-1.92802 -11,-3.88719 0,-1.02217 -0.72952,-2.46395 -1.62116,-3.20395 -1.67563,-1.39064 -1.63238,-7.07774 0.22028,-28.96739 0.75113,-8.874736 -0.74701,-12.922927 -5.73753,-15.503624 -4.16917,-2.15596 -8.77081,-1.176047 -12.43643,2.648321 -2.60469,2.717491 -2.92002,3.729531 -2.87823,9.237543 0.0258,3.40214 0.66763,11.06676 1.42625,17.03249 1.37427,10.80716 1.37045,10.86377 -1.04693,15.5 -1.33444,2.55927 -2.42625,4.72654 -2.42625,4.81614 0,0.0896 -4.5,0.9279 -10,1.86287 -24.77669,4.21189 -49.37665,16.34993 -66.0472,32.58882 -4.61476,4.49526 -5.34304,4.8601 -8.5,4.25813 C 152.30931,175.29664 149.96952,173.61894 140,163.5 129.67821,153.02352 126.7562,151 121.94966,151 117.41327,151 112,156.57783 112,161.25212 c 0,5.65738 3.61754,9.64019 15.0253,16.54245 12.3258,7.45772 14.28917,9.15787 16.96934,14.69436 l 2.01234,4.15693 -5.44187,10.42707 c -10.80936,20.71161 -14.93364,38.15656 -14.84498,62.79149 l 0.0553,15.36443 -3.13772,2.87295 c -3.94875,3.61556 -7.31085,4.53892 -21.63771,5.94252 -12.932533,1.267 -17.384832,2.89959 -20.114322,7.37564 -4.200621,6.88854 -0.70876,14.18803 7.628989,15.94786 2.077437,0.43849 5.570342,-0.3102 11.485333,-2.4618 16.87613,-6.13878 21.87582,-7.25365 26.41506,-5.8902 2.24672,0.67484 4.46214,1.29809 4.92317,1.38499 0.46103,0.0869 2.32972,3.74478 4.15265,8.1286 6.98881,16.80688 15.77386,29.84949 28.95851,42.99287 4.97784,4.96226 12.31311,11.22919 16.30061,13.92652 l 7.25,4.90422 v 5.36333 c 0,6.1139 -1.5111,9.5617 -9.76646,22.28365 -3.03364,4.675 -5.87081,9.7375 -6.30482,11.25 -1.10305,3.84405 0.53927,8.83108 3.80622,11.55791 2.24709,1.87558 3.60775,2.22117 7.26355,1.84483 3.67744,-0.37856 5.09759,-1.15614 7.78089,-4.26025 z m 49.15651,-56.33395 C 227.34282,369.74205 224,368.78722 224,367.50665 c 0,-2.22636 23.797,-44.86376 26.09606,-46.75665 1.16903,-0.9625 3.1508,-1.75 4.40394,-1.75 1.25314,0 3.22181,0.7875 4.37483,1.75 2.31375,1.93143 26.12517,44.50404 26.12517,46.70936 0,3.47604 -32.91049,6.83483 -45.06411,4.59918 z M 191,350.66904 c -7.47972,-5.88817 -16.45919,-15.7754 -21.74374,-23.9419 -4.84341,-7.48477 -10.77199,-19.54474 -9.99164,-20.3251 0.27462,-0.27461 11.91492,-2.42969 25.86734,-4.78905 26.56222,-4.4917 29.76142,-4.54924 31.88915,-0.57355 0.53839,1.00599 0.97889,3.01973 0.97889,4.47496 0,3.50534 -18.93457,49.48578 -20.37772,49.48497 -0.61725,-3.4e-4 -3.59728,-1.94899 -6.62228,-4.33033 z m 119.55733,3.42372 c -0.30839,-0.49899 -4.85245,-11.18649 -10.09791,-23.75 -10.48492,-25.11266 -11.07161,-28.07384 -6.2695,-31.64381 l 2.68991,-1.99973 26.30695,4.4552 c 21.24128,3.59731 26.36736,4.76891 26.62068,6.08433 0.17256,0.89603 -1.0566,4.39109 -2.73147,7.76681 -6.76553,13.636 -17.29509,26.67249 -28.91579,35.80019 -5.52548,4.3401 -6.65123,4.8268 -7.60287,3.28701 z m -63.28409,-70.35491 -6.22675,-3.14208 -1.61422,-7.25561 -1.61422,-7.25561 4.64942,-6.04228 L 247.11689,254 h 7.36375 7.36375 l 4.09816,4.75 c 5.1428,5.96079 5.5718,7.66032 3.9008,15.45346 -1.34577,6.2763 -1.36939,6.3069 -7.34673,9.51842 -3.29814,1.77204 -6.67162,3.20753 -7.49662,3.18997 -0.825,-0.0176 -4.30204,-1.44585 -7.72676,-3.174 z m -94.57547,-5.37342 c -1.04742,-1.04741 -0.83983,-13.19833 0.37465,-21.9301 1.97654,-14.21085 10.15678,-37.1871 13.60172,-38.20388 1.58554,-0.46797 39.28091,33.52112 40.37874,36.40863 1.20409,3.16701 -0.61644,7.84104 -3.58004,9.19134 -1.33518,0.60835 -12.58579,4.06833 -25.00134,7.68884 -12.41556,3.62051 -23.13674,6.79879 -23.82485,7.06284 -0.68812,0.26405 -1.56511,0.1661 -1.94888,-0.21767 z m 177.84358,-6.82015 C 303.99513,263.7359 302,262.71698 302,256.96813 c 0,-2.28948 1.99227,-4.65311 10.75,-12.75375 20.32235,-18.7976 28.75217,-26.20066 29.84231,-26.20751 1.22564,-0.008 7.36707,12.82647 9.81666,20.51457 2.87086,9.01029 4.59103,20.46295 4.59103,30.56653 0,5.45162 -0.3375,9.88631 -0.75,9.85487 -0.4125,-0.0314 -11.98139,-3.36079 -25.70865,-7.39856 z M 222.79101,223.25 c -17.77781,-12.16785 -37.72067,-26.91377 -37.75318,-27.91501 -0.11341,-3.49276 18.73166,-16.32182 31.42047,-21.38993 7.91162,-3.16003 22.97199,-6.8481 23.95408,-5.86601 0.91321,0.9132 -2.42707,51.32569 -3.59488,54.25508 -1.05147,2.63756 -4.2021,4.66587 -7.24763,4.66587 -0.71496,0 -3.76545,-1.6875 -6.77886,-3.75 z m 53.67427,2.79848 c -4.25817,-1.72601 -4.57635,-3.21899 -6.01911,-28.2428 -1.94877,-33.80039 -2.35816,-30.16302 3.30383,-29.35437 7.62055,1.08837 23.44354,6.86161 31.60635,11.532 7.8381,4.48462 19.64365,13.47618 19.64365,14.96135 0,1.89453 -44.48209,32.62033 -46.3151,31.99195 -0.10169,-0.0349 -1.10052,-0.43452 -2.21962,-0.88813 z"
       id="path823"
       inkscape:connector-curvature="0" />
    <path
       style="display:inline;fill:#457ae7"
       d="m 159,478.06487 c -5.51172,-1.68266 -11.46121,-5.46677 -15.55961,-9.89654 C 135.7969,459.90687 29.526008,326.6076 28.105671,323.5 c -0.754136,-1.65 -1.57612,-6.15 -1.826632,-10 -0.414926,-6.37682 1.382951,-15.05683 20.195027,-97.5 15.227808,-66.73526 21.277619,-91.57493 23.038666,-94.59352 1.31349,-2.25143 3.979193,-5.30705 5.923784,-6.79026 1.944591,-1.48321 40.329394,-20.546922 85.299554,-42.3638 L 242.5,32.58537 l 10.76119,-0.381458 10.76118,-0.381458 82.23882,39.771185 c 45.23134,21.874151 83.84774,40.770151 85.81421,41.991101 4.92595,3.05844 9.6481,7.95144 11.852,12.28081 1.01758,1.99895 10.94014,43.23445 22.05012,91.63445 22.75024,99.11007 22.38612,96.73204 16.51096,107.83322 -3.57399,6.7531 -115.26299,146.04931 -119.76962,149.3742 -1.7249,1.27259 -4.72978,2.75652 -6.67752,3.29761 -4.20649,1.1686 -193.22148,1.226 -197.04134,0.0598 z m 29.73239,-46.82653 c 3.09926,-2.00651 5.63472,-6.53254 8.25633,-14.73834 2.74205,-8.58278 7.03155,-18.5 8.00182,-18.5 0.39458,0 1.97427,-1.16482 3.51043,-2.58848 3.09776,-2.87091 2.25917,-2.92938 16.99903,1.18544 9.48446,2.64772 11.08263,2.79205 31,2.79961 20.51311,0.008 21.27398,-0.0663 32.81694,-3.19414 l 11.81694,-3.2021 3.49201,2.66348 c 4.24018,3.23415 5.17727,4.98084 9.80504,18.27608 4.74042,13.61888 6.61485,16.53027 11.95582,18.57001 3.87408,1.47953 4.6676,1.49423 7.89373,0.14627 4.64191,-1.93952 7.10338,-6.55817 6.47348,-12.14668 -0.31751,-2.81694 -2.08383,-6.55523 -5.4735,-11.58429 -9.85251,-14.61759 -10.65456,-16.50782 -10.36394,-24.4252 0.13765,-3.74998 0.5504,-4.27202 6.6036,-8.35201 12.75526,-8.59733 26.72885,-23.50615 36.2447,-38.67048 2.70694,-4.31374 8.42212,-16.03986 11.93006,-24.47751 0.73713,-1.77301 2.39165,-2.89708 5.68962,-3.86551 5.01679,-1.47313 7.4204,-0.9189 27.38557,6.31461 8.67704,3.14375 12.88396,2.74303 17.27223,-1.64525 3.35873,-3.35872 3.75374,-6.64767 1.29777,-10.8053 -2.89693,-4.90412 -7.74695,-6.76062 -22.00186,-8.42192 -14.9115,-1.73781 -17.04275,-2.37208 -20.88653,-6.21586 l -2.77486,-2.77486 -0.19353,-16.04295 c -0.28114,-23.30465 -5.1775,-42.91107 -15.58804,-62.41894 l -5.00357,-9.37598 1.67832,-3.62402 c 2.57929,-5.56952 5.06032,-7.76858 16.63745,-14.74658 5.8891,-3.54959 11.61478,-7.60727 12.72372,-9.01707 4.53667,-5.76743 3.43619,-13.94559 -2.35148,-17.4749 -6.50569,-3.96717 -10.88647,-1.90453 -23.57497,11.10001 -8.75251,8.97051 -12.06384,11.26417 -17.85328,12.36641 -3.04051,0.57889 -3.91445,0.12262 -9.5,-4.95972 C 324.64572,155.00858 302.02,143.92899 277.45032,139.46383 l -9.04968,-1.64464 -2.34599,-4.42224 c -2.0954,-3.94987 -2.27727,-5.2487 -1.70273,-12.15959 0.3538,-4.25555 1.16593,-11.18385 1.80474,-15.39623 1.34868,-8.893317 0.43346,-12.325342 -4.36309,-16.361378 -4.55748,-3.834868 -10.0323,-3.441018 -14.5177,1.044383 l -3.52414,3.524135 0.58355,8.22586 c 0.32095,4.52423 0.88689,12.34721 1.25763,17.38439 0.59998,8.15183 0.43793,9.64632 -1.47423,13.59631 l -2.14829,4.43779 -7.7352,1.10348 c -23.51813,3.35503 -49.51297,15.72381 -67.3966,32.06845 -5.52657,5.05096 -5.68427,5.11834 -10.45045,4.46506 -4.50788,-0.61787 -5.51172,-1.35102 -14.66153,-10.70785 -11.89498,-12.16412 -13.9667,-13.60666 -19.55353,-13.61517 -8.68449,-0.0132 -13.01425,8.59119 -8.61084,17.11206 0.7443,1.44025 3.73478,4.09157 6.64551,5.89182 19.08099,11.8013 21.38074,13.62349 23.19736,18.38024 l 1.76273,4.61565 -5.47565,10.74682 c -10.52921,20.66518 -15.33515,42.19335 -14.4725,64.82934 l 0.46047,12.08253 -3.74145,3.14114 c -4.02574,3.37981 -8.4311,4.66651 -19.43871,5.6776 -13.438583,1.23439 -17.138107,2.34001 -20.449441,6.11141 -4.095772,4.66482 -4.20835,10.07756 -0.300559,14.45077 3.776619,4.2264 8.884532,4.82675 16.75,1.96866 19.24204,-6.99202 20.3583,-7.2628 27.00579,-6.55091 6.27757,0.67227 6.40822,0.74757 7.56565,4.36018 0.64777,2.02186 3.12883,7.63872 5.51347,12.48192 9.97774,20.26475 23.03176,35.69043 41.84463,49.44697 6.81606,4.98411 6.93293,5.14635 7.13645,9.90715 0.24148,5.64889 -1.82208,10.23652 -10.40745,23.13742 -4.90471,7.3701 -5.65854,9.14021 -5.65854,13.28708 0,9.58348 9.10128,14.41811 17.23239,9.1539 z M 246,372.40011 c -7.42893,-0.86832 -21.06373,-3.69422 -21.53962,-4.46421 -0.60395,-0.97722 24.06256,-46.01413 25.80953,-47.12387 2.49002,-1.58176 7.35943,-0.83662 9.39704,1.43797 3.39024,3.78452 25.55462,44.93029 24.66588,45.7895 -2.5094,2.42602 -29.05189,5.4454 -38.33283,4.36061 z M 191.90135,350.83607 C 184.43483,344.94558 177.65249,337.76099 171.75984,329.5 166.95204,322.75988 160,309.72962 160,307.45844 c 0,-0.97599 46.43663,-9.56439 51.29545,-9.48703 2.4703,0.0393 6.70455,4.48149 6.70455,7.03375 0,2.0857 -18.47292,47.77058 -19.93208,49.29349 -0.42088,0.43926 -3.19583,-1.1189 -6.16657,-3.46258 z M 310.06798,352.25 C 306.01911,343.36418 291,305.92196 291,304.71405 c 0,-0.79438 0.93266,-2.63002 2.07258,-4.07919 2.78079,-3.5352 4.62839,-3.45799 32.69042,1.36607 12.79464,2.19949 23.51247,3.99907 23.81738,3.99907 1.86753,0 -5.20288,14.27009 -11.39582,23 -5.99006,8.44392 -12.14447,15.00017 -19.79655,21.08911 -3.39438,2.70099 -6.37306,4.91089 -6.61929,4.91089 -0.24623,0 -1.01156,-1.2375 -1.70074,-2.75 z m -63.12773,-69.21793 c -5.24372,-2.70849 -5.6274,-3.16483 -6.75,-8.02819 -1.86848,-8.09473 -1.53914,-9.80961 2.90287,-15.1151 L 247.18624,255 h 7.67005 7.67005 l 4.30517,5.51231 4.30517,5.51231 -1.13721,5.73769 c -0.62546,3.15573 -1.33189,6.43178 -1.56984,7.28011 -0.52885,1.88542 -10.62356,6.97594 -13.70178,6.90948 -1.22532,-0.0265 -4.72974,-1.34038 -7.7876,-2.91983 z m -94.29,-8.03083 c -0.89108,-4.45537 1.06608,-22.54155 3.40602,-31.47518 2.16795,-8.27701 7.10286,-20.75271 9.4601,-23.91565 1.32096,-1.77246 2.54187,-0.88049 19.69594,14.38943 C 206.81976,253.23399 207,253.42426 207,257 c 0,5.42878 -2.13052,6.49236 -27.93179,13.94394 -13.43748,3.88083 -24.74373,7.05606 -25.125,7.05606 -0.38127,0 -0.9631,-1.34944 -1.29296,-2.99876 z m 177.59203,-3.96818 c -12.79175,-3.74054 -23.97613,-7.39721 -24.85418,-8.12593 -2.26107,-1.87652 -3.45991,-5.5388 -2.58623,-7.90057 0.6251,-1.6898 38.58102,-37.00656 39.772,-37.00656 0.21854,0 1.75481,2.68913 3.41393,5.97584 6.50077,12.87794 10.99998,31.99527 11.00818,46.77416 0.003,6.27115 -0.23225,7.2388 -1.74598,7.16702 -0.9625,-0.0456 -12.21597,-3.14342 -25.00772,-6.88396 z M 206.11802,210.89644 C 194.50311,202.58949 185,195.42823 185,194.98255 c 0,-1.24996 11.79162,-10.33933 18.55109,-14.29979 3.32809,-1.94997 9.40309,-4.87052 13.5,-6.49009 7.91398,-3.12854 21.83721,-6.6377 22.74287,-5.73204 0.29804,0.29804 -0.10318,12.42682 -0.8916,26.95284 -1.26302,23.27025 -1.65817,26.65922 -3.32291,28.49874 -4.00814,4.42894 -6.78572,3.20184 -29.46143,-13.01577 z m 67.95456,12.4687 c -1.18755,-1.50972 -2.09636,-4.1786 -2.12827,-6.25 -0.0306,-1.98833 -0.65458,-13.51514 -1.38655,-25.61514 -0.73198,-12.1 -1.01538,-22.34404 -0.62979,-22.76452 1.11623,-1.21725 19.09303,3.75163 27.31281,7.5494 10.73089,4.95798 26.75922,16.2122 26.75922,18.78888 0,0.47661 -9.49042,7.63 -21.08982,15.89641 -22.88271,16.30755 -25.03297,17.23177 -28.8376,12.39497 z"
       id="path821"
       inkscape:connector-curvature="0" />
    <path
       style="display:inline;fill:#316ce5"
       d="m 160.73447,477.92664 c -5.25303,-1.25809 -10.59516,-4.15771 -14.8939,-8.08414 C 138.86437,463.47048 29.361151,325.62433 28.000571,321.50173 25.13656,312.82369 26.001291,308.05054 47.365438,214.61131 69.706196,116.90074 68.796468,119.96 77.217682,114.2234 84.260807,109.42557 241.08988,33.985889 246.43007,32.826959 c 2.71155,-0.588459 7.88655,-0.85744 11.5,-0.597735 6.22353,0.447294 10.98146,2.607679 90.24075,40.974746 46.01896,22.276406 85.51241,41.96112 87.76324,43.7438 7.84726,6.21515 7.56093,5.2408 28.97981,98.61632 10.96795,47.81475 20.24974,88.62573 20.62619,90.69107 1.12789,6.18798 -1.32365,16.23448 -5.42101,22.21551 -1.99048,2.90554 -28.96359,36.81364 -59.94025,75.35133 -49.80681,61.96405 -56.86238,70.3351 -61,72.37326 L 354.5,478.5 l -95,0.16424 c -53.6383,0.0927 -96.63946,-0.22841 -98.76553,-0.7376 z m 27.68559,-45.87723 c 3.91645,-2.4205 6.53593,-7.10477 10.09337,-18.04941 3.2157,-9.89327 6.09908,-16 7.55464,-16 0.56509,0 2.03359,-1.08567 3.26335,-2.4126 l 2.23593,-2.4126 8.46632,2.46461 c 25.61661,7.45718 52.64783,6.85215 79.58361,-1.7813 0.61451,-0.19696 2.8955,1.06009 5.06886,2.79345 3.96688,3.16375 4.95664,5.22941 11.8726,24.77835 2.48289,7.01823 6.94561,11.55979 12.02911,12.24164 5.3771,0.72121 9.63933,-1.52317 11.88676,-6.25929 2.51797,-5.30623 1.4516,-9.4716 -4.84841,-18.93837 -8.17886,-12.29005 -10.46306,-17.31151 -10.37981,-22.81845 0.0569,-3.76559 0.50709,-4.98308 2.16275,-5.84919 4.11965,-2.15509 18.18572,-13.6509 23.16027,-18.92826 11.33811,-12.02826 23.37855,-31.21511 28.91076,-46.07025 1.71131,-4.59525 1.85364,-4.70537 6.88364,-5.32598 5.2034,-0.642 9.55673,0.43844 25.86121,6.41847 9.85271,3.61369 16.46881,2.27382 20.23238,-4.0974 2.1553,-3.64863 1.47651,-6.66957 -2.52183,-11.22343 -3.73218,-4.25072 -6.57336,-5.19149 -19.93557,-6.60108 -14.69137,-1.54979 -17.50089,-2.32536 -20.96211,-5.78659 L 386,285.15385 385.997,270.82692 c -0.005,-23.43959 -4.55175,-42.39747 -15.08623,-62.90594 l -5.08455,-9.89858 1.70404,-4.46198 c 1.759,-4.60586 3.00666,-5.58815 22.348,-17.59472 6.58985,-4.0908 9.12058,-7.9764 9.09596,-13.9657 -0.0275,-6.6852 -4.28077,-11 -10.84319,-11 -5.25339,0 -8.05302,1.79297 -16.3066,10.44326 -9.31992,9.76788 -13.83311,13.08 -19.06605,13.9921 -3.53663,0.61643 -4.15734,0.28979 -11.32023,-5.95719 -17.97496,-15.67652 -42.16493,-27.21769 -64.23148,-30.6452 l -8.29353,-1.2882 -2.08681,-4.17843 c -2.22376,-4.45265 -2.21346,-3.1593 -0.23834,-29.93532 L 267.25677,94.362036 264.052,90.712 c -3.88088,-4.420077 -8.21381,-5.506884 -13.36845,-3.35314 -2.00187,0.836434 -4.56723,3.010368 -5.7008,4.830964 -2.28527,3.670299 -2.28566,6.84501 -0.003,25.475316 1.2074,9.85483 1.17572,10.30469 -1.03772,14.73669 -1.93144,3.86732 -2.83454,4.65978 -5.86254,5.14428 -29.55021,4.72823 -49.92392,13.97189 -70.66564,32.06139 -6.76379,5.89891 -7.34809,6.19669 -10.68314,5.44451 -4.61707,-1.04132 -8.40503,-4.03965 -18.8601,-14.92858 -6.77289,-7.05394 -9.40701,-9.13345 -12.24343,-9.66557 -14.63214,-2.745 -20.21301,15.01457 -7.26597,23.12197 19.79595,12.39617 22.72107,14.51611 23.65361,17.14265 0.54238,1.52764 1.42593,3.54287 1.96345,4.4783 0.74287,1.29281 0.0385,3.33171 -2.93625,8.5 -11.50764,19.99288 -18.22244,49.12784 -16.47394,71.47901 l 0.68243,8.72364 -3.16186,3.16186 c -3.64068,3.64068 -6.60229,4.47485 -21.08855,5.93982 -12.953649,1.30997 -15.883488,2.22006 -19.585055,6.08367 -2.401664,2.5068 -2.914945,3.89723 -2.914945,7.89632 0,5.7837 2.846856,9.49267 8.442768,10.99949 4.002961,1.07788 7.079367,0.36202 23.557232,-5.48166 6.7634,-2.39856 10.97098,-3.36565 13,-2.98797 8.06035,1.50036 8.21461,1.58914 9.35082,5.38146 1.76123,5.87846 10.57031,22.53716 15.80241,29.88366 6.91586,9.71072 20.57062,23.52773 30.09677,30.45439 l 8.25,5.99874 v 4.93306 c 0,5.6156 -0.95636,7.75101 -9.17763,20.49228 -6.86505,10.63942 -8.04767,13.94162 -6.7178,18.75799 2.08404,7.54777 10.5734,10.79971 17.31549,6.63287 z M 242,371.39614 c -8.88336,-1.62029 -16.99841,-3.63331 -16.98925,-4.21435 0.006,-0.37498 5.56741,-10.80679 12.35888,-23.18179 13.62875,-24.83345 15.00898,-26.34765 20.36883,-22.34595 1.64106,1.22523 7.43817,10.59765 14.49799,23.43946 C 278.7064,356.86235 284,366.79477 284,367.16555 c 0,2.51173 -33.12852,5.84871 -42,4.23059 z m -52.5,-23.30256 c -10.63747,-8.91324 -21.66774,-23.44048 -27.06594,-35.64676 l -2.34702,-5.30703 2.70648,-0.57335 c 9.15032,-1.93843 44.30978,-7.55999 47.30149,-7.56292 4.3388,-0.004 6.92602,2.4782 6.85274,6.57522 -0.0573,3.20101 -18.14203,47.66533 -19.56632,48.10692 -0.48478,0.15031 -4.03143,-2.36613 -7.88143,-5.59208 z m 112.1662,-17.42173 c -9.39084,-22.66362 -10.34591,-25.73698 -9.04855,-29.11784 1.50476,-3.92136 3.71329,-3.87812 30.48337,0.59681 14.24444,2.38113 25.89862,4.78379 25.89819,5.33925 -0.002,2.17618 -6.33076,14.22285 -10.74306,20.44822 -5.7168,8.06591 -15.2046,18.11642 -21.39013,22.65876 -2.54868,1.87162 -4.83639,3.40295 -5.0838,3.40295 -0.2474,0 -4.79961,-10.49767 -10.11602,-23.32815 z m -53.84199,-47.69846 c -3.12169,-1.61172 -5.89489,-3.72758 -6.16269,-4.7019 -0.26779,-0.97432 -1.02321,-4.14293 -1.67871,-7.04135 l -1.19182,-5.26986 4.68183,-5.48014 L 248.15465,255 h 6.80106 6.80107 l 4.27451,5.54056 4.27452,5.54057 -1.26393,7.07249 -1.26392,7.07249 -6.36702,2.88694 c -3.50187,1.58782 -6.71441,2.86531 -7.13898,2.83885 -0.42458,-0.0265 -3.32607,-1.36678 -6.44775,-2.97851 z m 82.74612,-12.43737 c -16.62178,-4.87189 -25.36967,-7.9087 -26.25,-9.11262 -2.1651,-2.96095 -1.5181,-6.24873 1.92967,-9.80577 C 311.3742,246.33102 341.71514,219 342.45975,219 c 1.30914,0 7.58741,15.02804 10.10736,24.19358 1.83254,6.66525 2.72353,12.92489 3.13949,22.05642 0.31944,7.0125 0.40363,12.71467 0.1871,12.67149 -0.21654,-0.0432 -11.61205,-3.36664 -25.32337,-7.38547 z M 153.30626,265.75 c 0.37255,-6.84603 1.60218,-15.13736 3.14111,-21.18031 2.54975,-10.01216 9.22491,-25.85866 10.67683,-25.3463 0.43112,0.15214 9.35454,7.90404 19.82982,17.22646 C 205.32865,252.80223 206,253.53283 206,257.17679 c 0,2.82365 -0.56797,4.14061 -2.25,5.21714 C 201.30383,263.95951 157.27322,277 154.43327,277 c -1.5855,0 -1.68511,-0.9943 -1.12701,-11.25 z m 53.8591,-54.84329 C 195.52441,202.6054 186,195.41664 186,194.93169 c 0,-2.02316 13.26847,-11.29136 23.5,-16.41506 C 219.34516,173.58642 233.16082,169 238.16694,169 c 1.66588,0 1.79512,0.66201 1.31782,6.75 C 238.85072,183.83727 237,216.05616 237,219.0068 c 0,2.59611 -4.26881,6.9932 -6.78919,6.9932 -1.03405,0 -11.40451,-6.79198 -23.04545,-15.09329 z m 69.67065,13.89132 c -1.46519,-0.49905 -2.96432,-1.67026 -3.33139,-2.60269 -0.57087,-1.4501 -3.37342,-42.24993 -3.47114,-50.53324 -0.0328,-2.78265 0.0493,-2.82458 4.21652,-2.15406 8.50812,1.36899 23.21589,6.95281 31.37927,11.91318 8.7964,5.34502 17.37073,12.05225 17.37073,13.58818 0,0.97122 -39.47415,29.34973 -42,30.19438 -0.825,0.27588 -2.69879,0.0933 -4.16399,-0.40575 z"
       id="path819"
       inkscape:connector-curvature="0" />
  </g>
</svg>
