<svg xmlns="http://www.w3.org/2000/svg" width="545" height="400" viewBox="0 0 545 400" fill="none"><mask id="mask0_1954_8362" style="mask-type:luminance" maskUnits="userSpaceOnUse" x="0" y="0" width="545" height="400"><path d="M545 0H0V400H545V0Z" fill="white"></path></mask><g mask="url(#mask0_1954_8362)"><mask id="mask1_1954_8362" style="mask-type:luminance" maskUnits="userSpaceOnUse" x="0" y="0" width="527" height="430"><path d="M527 0H0V430H527V0Z" fill="white"></path></mask><g mask="url(#mask1_1954_8362)"><path d="M509.04 1.42188H416.556C413.437 1.42188 410.908 3.95273 410.908 7.07469V193.617C410.908 196.739 413.437 199.27 416.556 199.27H509.04C512.159 199.27 514.688 196.739 514.688 193.617V7.07469C514.688 3.95273 512.159 1.42188 509.04 1.42188Z" fill="#E1DDDD"></path><path d="M462.445 187.257C468.294 187.257 473.035 182.512 473.035 176.658C473.035 170.804 468.294 166.059 462.445 166.059C456.596 166.059 451.855 170.804 451.855 176.658C451.855 182.512 456.596 187.257 462.445 187.257Z" fill="white"></path><path d="M453.267 14.8459C454.047 14.8459 454.679 14.2132 454.679 13.4327C454.679 12.6522 454.047 12.0195 453.267 12.0195C452.487 12.0195 451.855 12.6522 451.855 13.4327C451.855 14.2132 452.487 14.8459 453.267 14.8459Z" fill="white"></path><path d="M471.623 12.0195H459.621C458.841 12.0195 458.209 12.6522 458.209 13.4327C458.209 14.2132 458.841 14.8459 459.621 14.8459H471.623C472.402 14.8459 473.035 14.2132 473.035 13.4327C473.035 12.6522 472.402 12.0195 471.623 12.0195Z" fill="white"></path><path d="M501.979 21.207H423.615C422.055 21.207 420.791 22.4724 420.791 24.0334V54.251C420.791 55.812 422.055 57.0774 423.615 57.0774H501.979C503.539 57.0774 504.803 55.812 504.803 54.251V24.0334C504.803 22.4724 503.539 21.207 501.979 21.207Z" fill="white"></path><mask id="mask2_1954_8362" style="mask-type:luminance" maskUnits="userSpaceOnUse" x="427" y="31" width="44" height="16"><path d="M470.211 31.9688H427.146V46.3834H470.211V31.9688Z" fill="white"></path></mask><g mask="url(#mask2_1954_8362)"><path d="M468.094 31.9688H429.263C428.094 31.9688 427.146 32.9178 427.146 34.0885V35.229C427.146 36.3997 428.094 37.3488 429.263 37.3488H468.094C469.263 37.3488 470.211 36.3997 470.211 35.229V34.0885C470.211 32.9178 469.263 31.9688 468.094 31.9688Z" fill="#E1DDDD"></path><path d="M453.935 40.9375H429.263C428.094 40.9375 427.146 41.8866 427.146 43.0573V44.1977C427.146 45.3685 428.094 46.3176 429.263 46.3176H453.935C455.105 46.3176 456.052 45.3685 456.052 44.1977V43.0573C456.052 41.8866 455.105 40.9375 453.935 40.9375Z" fill="#E1DDDD"></path></g><path d="M495.825 44.0877C498.555 44.0877 500.767 41.8732 500.767 39.1415C500.767 36.4098 498.555 34.1953 495.825 34.1953C493.096 34.1953 490.883 36.4098 490.883 39.1415C490.883 41.8732 493.096 44.0877 495.825 44.0877Z" fill="#E1DDDD"></path><path d="M495.825 41.2591C496.995 41.2591 497.943 40.31 497.943 39.1393C497.943 37.9685 496.995 37.0195 495.825 37.0195C494.656 37.0195 493.707 37.9685 493.707 39.1393C493.707 40.31 494.656 41.2591 495.825 41.2591Z" fill="#E1DDDD"></path><path d="M501.979 62.8945H423.615C422.055 62.8945 420.791 64.1599 420.791 65.7209V86.7112C420.791 88.2722 422.055 89.5376 423.615 89.5376H501.979C503.539 89.5376 504.803 88.2722 504.803 86.7112V65.7209C504.803 64.1599 503.539 62.8945 501.979 62.8945Z" fill="white"></path><mask id="mask3_1954_8362" style="mask-type:luminance" maskUnits="userSpaceOnUse" x="448" y="70" width="44" height="12"><path d="M491.389 70.8906H448.324V81.9063H491.389V70.8906Z" fill="white"></path></mask><g mask="url(#mask3_1954_8362)"><path d="M489.392 70.8906H450.321C449.218 70.8906 448.324 71.7854 448.324 72.8892C448.324 73.9931 449.218 74.8879 450.321 74.8879H489.392C490.495 74.8879 491.389 73.9931 491.389 72.8892C491.389 71.7854 490.495 70.8906 489.392 70.8906Z" fill="#E1DDDD"></path><path d="M475.234 77.5508H450.321C449.218 77.5508 448.324 78.4456 448.324 79.5494C448.324 80.6532 449.218 81.548 450.321 81.548H475.234C476.337 81.548 477.231 80.6532 477.231 79.5494C477.231 78.4456 476.337 77.5508 475.234 77.5508Z" fill="#E1DDDD"></path></g><path d="M435.617 84.7006C440.296 84.7006 444.09 80.9043 444.09 76.2214C444.09 71.5384 440.296 67.7422 435.617 67.7422C430.939 67.7422 427.146 71.5384 427.146 76.2214C427.146 80.9043 430.939 84.7006 435.617 84.7006Z" fill="#E1DDDD"></path><path d="M501.979 95.3984H423.615C422.055 95.3984 420.791 96.6639 420.791 98.2248V119.215C420.791 120.776 422.055 122.042 423.615 122.042H501.979C503.539 122.042 504.803 120.776 504.803 119.215V98.2248C504.803 96.6639 503.539 95.3984 501.979 95.3984Z" fill="white"></path><mask id="mask4_1954_8362" style="mask-type:luminance" maskUnits="userSpaceOnUse" x="427" y="103" width="44" height="12"><path d="M470.211 103.395H427.146V114.411H470.211V103.395Z" fill="white"></path></mask><g mask="url(#mask4_1954_8362)"><path d="M468.215 103.395H429.142C428.04 103.395 427.146 104.29 427.146 105.394C427.146 106.498 428.04 107.392 429.142 107.392H468.215C469.318 107.392 470.211 106.498 470.211 105.394C470.211 104.29 469.318 103.395 468.215 103.395Z" fill="#E1DDDD"></path><path d="M454.055 110.055H429.142C428.04 110.055 427.146 110.95 427.146 112.054C427.146 113.157 428.04 114.052 429.142 114.052H454.055C455.158 114.052 456.052 113.157 456.052 112.054C456.052 110.95 455.158 110.055 454.055 110.055Z" fill="#E1DDDD"></path></g><path d="M495.825 113.669C498.555 113.669 500.767 111.455 500.767 108.723C500.767 105.991 498.555 103.777 495.825 103.777C493.096 103.777 490.883 105.991 490.883 108.723C490.883 111.455 493.096 113.669 495.825 113.669Z" fill="#E1DDDD"></path><path d="M495.825 110.845C496.995 110.845 497.943 109.896 497.943 108.725C497.943 107.554 496.995 106.605 495.825 106.605C494.656 106.605 493.707 107.554 493.707 108.725C493.707 109.896 494.656 110.845 495.825 110.845Z" fill="#E1DDDD"></path><path d="M501.979 127.902H423.615C422.055 127.902 420.791 129.168 420.791 130.729V151.719C420.791 153.28 422.055 154.545 423.615 154.545H501.979C503.539 154.545 504.803 153.28 504.803 151.719V130.729C504.803 129.168 503.539 127.902 501.979 127.902Z" fill="white"></path><mask id="mask5_1954_8362" style="mask-type:luminance" maskUnits="userSpaceOnUse" x="448" y="135" width="44" height="12"><path d="M491.389 135.898H448.324V146.914H491.389V135.898Z" fill="white"></path></mask><g mask="url(#mask5_1954_8362)"><path d="M489.392 135.898H450.321C449.218 135.898 448.324 136.793 448.324 137.897C448.324 139 449.218 139.895 450.321 139.895H489.392C490.495 139.895 491.389 139 491.389 137.897C491.389 136.793 490.495 135.898 489.392 135.898Z" fill="#E1DDDD"></path><path d="M475.234 142.559H450.321C449.218 142.559 448.324 143.454 448.324 144.557C448.324 145.661 449.218 146.556 450.321 146.556H475.234C476.337 146.556 477.231 145.661 477.231 144.557C477.231 143.454 476.337 142.559 475.234 142.559Z" fill="#E1DDDD"></path></g><path d="M435.617 149.708C440.296 149.708 444.09 145.912 444.09 141.229C444.09 136.546 440.296 132.75 435.617 132.75C430.939 132.75 427.146 136.546 427.146 141.229C427.146 145.912 430.939 149.708 435.617 149.708Z" fill="#E1DDDD"></path><path d="M161.694 17.6719H60.7377C57.6185 17.6719 55.0898 20.2027 55.0898 23.3247V225.412C55.0898 228.534 57.6185 231.065 60.7377 231.065H161.694C164.813 231.065 167.342 228.534 167.342 225.412V23.3247C167.342 20.2027 164.813 17.6719 161.694 17.6719Z" fill="#E1DDDD"></path><path d="M110.863 217.643C116.711 217.643 121.453 212.898 121.453 207.044C121.453 201.19 116.711 196.445 110.863 196.445C105.014 196.445 100.273 201.19 100.273 207.044C100.273 212.898 105.014 217.643 110.863 217.643Z" fill="white"></path><path d="M101.685 31.807C102.465 31.807 103.097 31.1742 103.097 30.3937C103.097 29.6133 102.465 28.9805 101.685 28.9805C100.905 28.9805 100.273 29.6133 100.273 30.3937C100.273 31.1742 100.905 31.807 101.685 31.807Z" fill="white"></path><path d="M120.041 28.9805H108.039C107.259 28.9805 106.627 29.6133 106.627 30.3937C106.627 31.1742 107.259 31.807 108.039 31.807H120.041C120.82 31.807 121.453 31.1742 121.453 30.3937C121.453 29.6133 120.82 28.9805 120.041 28.9805Z" fill="white"></path><path d="M154.635 37.457H67.7986C66.239 37.457 64.9746 38.7225 64.9746 40.2834V72.7871C64.9746 74.3481 66.239 75.6136 67.7986 75.6136H154.635C156.195 75.6136 157.459 74.3481 157.459 72.7871V40.2834C157.459 38.7225 156.195 37.457 154.635 37.457Z" fill="white"></path><mask id="mask6_1954_8362" style="mask-type:luminance" maskUnits="userSpaceOnUse" x="92" y="48" width="53" height="17"><path d="M144.045 48.9062H92.5078V64.1688H144.045V48.9062Z" fill="white"></path></mask><g mask="url(#mask6_1954_8362)"><path d="M141.927 48.9062H94.6258C93.456 48.9062 92.5078 49.8554 92.5078 51.0261V52.5099C92.5078 53.6806 93.456 54.6297 94.6258 54.6297H141.927C143.097 54.6297 144.045 53.6806 144.045 52.5099V51.0261C144.045 49.8554 143.097 48.9062 141.927 48.9062Z" fill="#E1DDDD"></path><path d="M124.983 58.4453H94.6258C93.456 58.4453 92.5078 59.3944 92.5078 60.5651V62.049C92.5078 63.2197 93.456 64.1688 94.6258 64.1688H124.983C126.153 64.1688 127.101 63.2197 127.101 62.049V60.5651C127.101 59.3944 126.153 58.4453 124.983 58.4453Z" fill="#E1DDDD"></path></g><path d="M79.7999 65.0171C84.4788 65.0171 88.2718 61.2208 88.2718 56.5379C88.2718 51.8549 84.4788 48.0586 79.7999 48.0586C75.1211 48.0586 71.3281 51.8549 71.3281 56.5379C71.3281 61.2208 75.1211 65.0171 79.7999 65.0171Z" fill="#E1DDDD"></path><path d="M154.635 81.2695H67.7986C66.239 81.2695 64.9746 82.5349 64.9746 84.0959V108.12C64.9746 109.681 66.239 110.947 67.7986 110.947H154.635C156.195 110.947 157.459 109.681 157.459 108.12V84.0959C157.459 82.5349 156.195 81.2695 154.635 81.2695Z" fill="white"></path><mask id="mask7_1954_8362" style="mask-type:luminance" maskUnits="userSpaceOnUse" x="92" y="90" width="53" height="13"><path d="M144.045 90.1719H92.5078V102.043H144.045V90.1719Z" fill="white"></path></mask><g mask="url(#mask7_1954_8362)"><path d="M141.927 90.1719H94.6258C93.456 90.1719 92.5078 91.1209 92.5078 92.2917V92.5036C92.5078 93.6744 93.456 94.6234 94.6258 94.6234H141.927C143.097 94.6234 144.045 93.6744 144.045 92.5036V92.2917C144.045 91.1209 143.097 90.1719 141.927 90.1719Z" fill="#E1DDDD"></path><path d="M124.983 97.5898H94.6258C93.456 97.5898 92.5078 98.5389 92.5078 99.7096V99.9216C92.5078 101.093 93.456 102.042 94.6258 102.042H124.983C126.153 102.042 127.101 101.093 127.101 99.9216V99.7096C127.101 98.5389 126.153 97.5898 124.983 97.5898Z" fill="#E1DDDD"></path></g><path d="M79.7999 104.587C84.4788 104.587 88.2718 100.791 88.2718 96.1081C88.2718 91.4252 84.4788 87.6289 79.7999 87.6289C75.1211 87.6289 71.3281 91.4252 71.3281 96.1081C71.3281 100.791 75.1211 104.587 79.7999 104.587Z" fill="#E1DDDD"></path><path d="M154.635 116.598H67.7986C66.239 116.598 64.9746 117.863 64.9746 119.424V143.449C64.9746 145.01 66.239 146.275 67.7986 146.275H154.635C156.195 146.275 157.459 145.01 157.459 143.449V119.424C157.459 117.863 156.195 116.598 154.635 116.598Z" fill="white"></path><mask id="mask8_1954_8362" style="mask-type:luminance" maskUnits="userSpaceOnUse" x="92" y="125" width="53" height="13"><path d="M144.045 125.5H92.5078V137.371H144.045V125.5Z" fill="white"></path></mask><g mask="url(#mask8_1954_8362)"><path d="M141.927 125.5H94.6258C93.456 125.5 92.5078 126.449 92.5078 127.62V127.832C92.5078 129.002 93.456 129.951 94.6258 129.951H141.927C143.097 129.951 144.045 129.002 144.045 127.832V127.62C144.045 126.449 143.097 125.5 141.927 125.5Z" fill="#E1DDDD"></path><path d="M124.983 132.918H94.6258C93.456 132.918 92.5078 133.867 92.5078 135.038V135.25C92.5078 136.421 93.456 137.37 94.6258 137.37H124.983C126.153 137.37 127.101 136.421 127.101 135.25V135.038C127.101 133.867 126.153 132.918 124.983 132.918Z" fill="#E1DDDD"></path></g><path d="M79.7999 139.916C84.4788 139.916 88.2718 136.119 88.2718 131.436C88.2718 126.753 84.4788 122.957 79.7999 122.957C75.1211 122.957 71.3281 126.753 71.3281 131.436C71.3281 136.119 75.1211 139.916 79.7999 139.916Z" fill="#E1DDDD"></path><path d="M154.635 151.93H67.7986C66.239 151.93 64.9746 153.195 64.9746 154.756V178.781C64.9746 180.342 66.239 181.607 67.7986 181.607H154.635C156.195 181.607 157.459 180.342 157.459 178.781V154.756C157.459 153.195 156.195 151.93 154.635 151.93Z" fill="white"></path><mask id="mask9_1954_8362" style="mask-type:luminance" maskUnits="userSpaceOnUse" x="92" y="160" width="53" height="13"><path d="M144.045 160.832H92.5078V172.703H144.045V160.832Z" fill="white"></path></mask><g mask="url(#mask9_1954_8362)"><path d="M141.927 160.832H94.6258C93.456 160.832 92.5078 161.781 92.5078 162.952V163.164C92.5078 164.334 93.456 165.284 94.6258 165.284H141.927C143.097 165.284 144.045 164.334 144.045 163.164V162.952C144.045 161.781 143.097 160.832 141.927 160.832Z" fill="#E1DDDD"></path><path d="M124.983 168.25H94.6258C93.456 168.25 92.5078 169.199 92.5078 170.37V170.582C92.5078 171.753 93.456 172.702 94.6258 172.702H124.983C126.153 172.702 127.101 171.753 127.101 170.582V170.37C127.101 169.199 126.153 168.25 124.983 168.25Z" fill="#E1DDDD"></path></g><path d="M79.7999 175.248C84.4788 175.248 88.2718 171.451 88.2718 166.768C88.2718 162.085 84.4788 158.289 79.7999 158.289C75.1211 158.289 71.3281 162.085 71.3281 166.768C71.3281 171.451 75.1211 175.248 79.7999 175.248Z" fill="#E1DDDD"></path><path d="M402.435 72.082H177.225C174.106 72.082 171.578 74.6129 171.578 77.7348V310.913C171.578 314.035 174.106 316.566 177.225 316.566H402.435C405.554 316.566 408.083 314.035 408.083 310.913V77.7348C408.083 74.6129 405.554 72.082 402.435 72.082Z" fill="#E1DDDD"></path><path d="M391.14 102.465H353.017C349.898 102.465 347.369 104.996 347.369 108.117V154.047C347.369 157.169 349.898 159.699 353.017 159.699H391.14C394.26 159.699 396.788 157.169 396.788 154.047V108.117C396.788 104.996 394.26 102.465 391.14 102.465Z" fill="white"></path><path d="M372.079 135.677C378.317 135.677 383.374 130.615 383.374 124.371C383.374 118.127 378.317 113.066 372.079 113.066C365.84 113.066 360.783 118.127 360.783 124.371C360.783 130.615 365.84 135.677 372.079 135.677Z" fill="#E1DDDD"></path><path d="M387.609 138.504H356.546C355.376 138.504 354.428 139.453 354.428 140.624C354.428 141.795 355.376 142.744 356.546 142.744H387.609C388.779 142.744 389.727 141.795 389.727 140.624C389.727 139.453 388.779 138.504 387.609 138.504Z" fill="#E1DDDD"></path><path d="M381.962 145.566H362.194C361.024 145.566 360.076 146.515 360.076 147.686C360.076 148.857 361.024 149.806 362.194 149.806H381.962C383.131 149.806 384.079 148.857 384.079 147.686C384.079 146.515 383.131 145.566 381.962 145.566Z" fill="#E1DDDD"></path><path d="M171.578 77.7348C171.578 74.6131 174.106 72.082 177.225 72.082H402.435C405.554 72.082 408.083 74.6131 408.083 77.7348V91.1603H171.578V77.7348Z" fill="#E1DDDD"></path><path d="M180.756 84.8013C182.316 84.8013 183.58 83.5358 183.58 81.9749C183.58 80.4139 182.316 79.1484 180.756 79.1484C179.197 79.1484 177.932 80.4139 177.932 81.9749C177.932 83.5358 179.197 84.8013 180.756 84.8013Z" fill="#E1DDDD"></path><path d="M189.228 84.8013C190.788 84.8013 192.052 83.5358 192.052 81.9749C192.052 80.4139 190.788 79.1484 189.228 79.1484C187.669 79.1484 186.404 80.4139 186.404 81.9749C186.404 83.5358 187.669 84.8013 189.228 84.8013Z" fill="#E1DDDD"></path><path d="M197.699 84.8013C199.259 84.8013 200.523 83.5358 200.523 81.9749C200.523 80.4139 199.259 79.1484 197.699 79.1484C196.139 79.1484 194.875 80.4139 194.875 81.9749C194.875 83.5358 196.139 84.8013 197.699 84.8013Z" fill="#E1DDDD"></path><path d="M391.14 165.352H353.017C349.898 165.352 347.369 167.883 347.369 171.005V296.78C347.369 299.902 349.898 302.433 353.017 302.433H391.14C394.26 302.433 396.788 299.902 396.788 296.78V171.005C396.788 167.883 394.26 165.352 391.14 165.352Z" fill="white"></path><path d="M381.255 178.074H362.9C361.34 178.074 360.076 179.34 360.076 180.901V193.619C360.076 195.18 361.34 196.446 362.9 196.446H381.255C382.815 196.446 384.079 195.18 384.079 193.619V180.901C384.079 179.34 382.815 178.074 381.255 178.074Z" fill="#E1DDDD"></path><path d="M381.255 202.098H362.9C361.34 202.098 360.076 203.363 360.076 204.924V216.936C360.076 218.497 361.34 219.763 362.9 219.763H381.255C382.815 219.763 384.079 218.497 384.079 216.936V204.924C384.079 203.363 382.815 202.098 381.255 202.098Z" fill="#E1DDDD"></path><path d="M381.255 225.414H362.9C361.34 225.414 360.076 226.68 360.076 228.241V240.253C360.076 241.814 361.34 243.08 362.9 243.08H381.255C382.815 243.08 384.079 241.814 384.079 240.253V228.241C384.079 226.68 382.815 225.414 381.255 225.414Z" fill="#E1DDDD"></path><path d="M381.255 272.051H362.9C361.34 272.051 360.076 273.317 360.076 274.878V286.89C360.076 288.451 361.34 289.716 362.9 289.716H381.255C382.815 289.716 384.079 288.451 384.079 286.89V274.878C384.079 273.317 382.815 272.051 381.255 272.051Z" fill="#E1DDDD"></path><path d="M381.255 248.73H362.9C361.34 248.73 360.076 249.996 360.076 251.557V263.569C360.076 265.13 361.34 266.395 362.9 266.395H381.255C382.815 266.395 384.079 265.13 384.079 263.569V251.557C384.079 249.996 382.815 248.73 381.255 248.73Z" fill="#E1DDDD"></path><path d="M338.896 103.172H185.697C184.138 103.172 182.873 104.438 182.873 105.999V133.556C182.873 135.117 184.138 136.383 185.697 136.383H338.896C340.456 136.383 341.72 135.117 341.72 133.556V105.999C341.72 104.438 340.456 103.172 338.896 103.172Z" fill="white"></path><mask id="mask10_1954_8362" style="mask-type:luminance" maskUnits="userSpaceOnUse" x="189" y="113" width="119" height="14"><path d="M307.129 113.137H189.229V126.422H307.129V113.137Z" fill="white"></path></mask><g mask="url(#mask10_1954_8362)"><path d="M305.011 113.137H191.347C190.177 113.137 189.229 114.086 189.229 115.257V115.999C189.229 117.17 190.177 118.119 191.347 118.119H305.011C306.181 118.119 307.129 117.17 307.129 115.999V115.257C307.129 114.086 306.181 113.137 305.011 113.137Z" fill="#E1DDDD"></path><path d="M266.249 121.441H191.347C190.177 121.441 189.229 122.39 189.229 123.561V124.303C189.229 125.473 190.177 126.423 191.347 126.423H266.249C267.419 126.423 268.367 125.473 268.367 124.303V123.561C268.367 122.39 267.419 121.441 266.249 121.441Z" fill="#E1DDDD"></path></g><path d="M324.745 124.725C327.474 124.725 329.687 122.51 329.687 119.778C329.687 117.047 327.474 114.832 324.745 114.832C322.016 114.832 319.803 117.047 319.803 119.778C319.803 122.51 322.016 124.725 324.745 124.725Z" fill="#E1DDDD"></path><path d="M324.745 121.899C325.915 121.899 326.863 120.95 326.863 119.779C326.863 118.609 325.915 117.66 324.745 117.66C323.575 117.66 322.627 118.609 322.627 119.779C322.627 120.95 323.575 121.899 324.745 121.899Z" fill="#E1DDDD"></path><path d="M338.896 142.035H185.697C184.138 142.035 182.873 143.301 182.873 144.862V166.766C182.873 168.327 184.138 169.593 185.697 169.593H338.896C340.456 169.593 341.72 168.327 341.72 166.766V144.862C341.72 143.301 340.456 142.035 338.896 142.035Z" fill="white"></path><mask id="mask11_1954_8362" style="mask-type:luminance" maskUnits="userSpaceOnUse" x="189" y="150" width="119" height="12"><path d="M307.129 150.305H189.229V161.328H307.129V150.305Z" fill="white"></path></mask><g mask="url(#mask11_1954_8362)"><path d="M305.064 150.305H191.294C190.154 150.305 189.229 151.23 189.229 152.371C189.229 153.513 190.154 154.438 191.294 154.438H305.064C306.204 154.438 307.129 153.513 307.129 152.371C307.129 151.23 306.204 150.305 305.064 150.305Z" fill="#E1DDDD"></path><path d="M266.301 157.195H191.294C190.154 157.195 189.229 158.12 189.229 159.262C189.229 160.403 190.154 161.329 191.294 161.329H266.301C267.442 161.329 268.367 160.403 268.367 159.262C268.367 158.12 267.442 157.195 266.301 157.195Z" fill="#E1DDDD"></path></g><path d="M324.745 160.759C327.474 160.759 329.687 158.545 329.687 155.813C329.687 153.081 327.474 150.867 324.745 150.867C322.016 150.867 319.803 153.081 319.803 155.813C319.803 158.545 322.016 160.759 324.745 160.759Z" fill="#E1DDDD"></path><path d="M324.745 157.935C325.915 157.935 326.863 156.986 326.863 155.815C326.863 154.644 325.915 153.695 324.745 153.695C323.575 153.695 322.627 154.644 322.627 155.815C322.627 156.986 323.575 157.935 324.745 157.935Z" fill="#E1DDDD"></path><path d="M338.896 175.246H185.697C184.138 175.246 182.873 176.511 182.873 178.072V199.977C182.873 201.538 184.138 202.803 185.697 202.803H338.896C340.456 202.803 341.72 201.538 341.72 199.977V178.072C341.72 176.511 340.456 175.246 338.896 175.246Z" fill="white"></path><mask id="mask12_1954_8362" style="mask-type:luminance" maskUnits="userSpaceOnUse" x="189" y="183" width="119" height="12"><path d="M307.129 183.512H189.229V194.535H307.129V183.512Z" fill="white"></path></mask><g mask="url(#mask12_1954_8362)"><path d="M305.064 183.512H191.294C190.154 183.512 189.229 184.437 189.229 185.579C189.229 186.72 190.154 187.646 191.294 187.646H305.064C306.204 187.646 307.129 186.72 307.129 185.579C307.129 184.437 306.204 183.512 305.064 183.512Z" fill="#E1DDDD"></path><path d="M266.301 190.402H191.294C190.154 190.402 189.229 191.328 189.229 192.469C189.229 193.611 190.154 194.536 191.294 194.536H266.301C267.442 194.536 268.367 193.611 268.367 192.469C268.367 191.328 267.442 190.402 266.301 190.402Z" fill="#E1DDDD"></path></g><path d="M324.745 193.971C327.474 193.971 329.687 191.756 329.687 189.024C329.687 186.293 327.474 184.078 324.745 184.078C322.016 184.078 319.803 186.293 319.803 189.024C319.803 191.756 322.016 193.971 324.745 193.971Z" fill="#E1DDDD"></path><path d="M324.745 191.145C325.915 191.145 326.863 190.196 326.863 189.025C326.863 187.855 325.915 186.906 324.745 186.906C323.575 186.906 322.627 187.855 322.627 189.025C322.627 190.196 323.575 191.145 324.745 191.145Z" fill="#E1DDDD"></path><path d="M338.896 274.879H185.697C184.138 274.879 182.873 276.144 182.873 277.705V299.61C182.873 301.171 184.138 302.436 185.697 302.436H338.896C340.456 302.436 341.72 301.171 341.72 299.61V277.705C341.72 276.144 340.456 274.879 338.896 274.879Z" fill="white"></path><mask id="mask13_1954_8362" style="mask-type:luminance" maskUnits="userSpaceOnUse" x="189" y="283" width="119" height="12"><path d="M307.129 283.145H189.229V294.168H307.129V283.145Z" fill="white"></path></mask><g mask="url(#mask13_1954_8362)"><path d="M305.064 283.145H191.294C190.154 283.145 189.229 284.07 189.229 285.212C189.229 286.353 190.154 287.279 191.294 287.279H305.064C306.204 287.279 307.129 286.353 307.129 285.212C307.129 284.07 306.204 283.145 305.064 283.145Z" fill="#E1DDDD"></path><path d="M266.301 290.035H191.294C190.154 290.035 189.229 290.961 189.229 292.102C189.229 293.244 190.154 294.169 191.294 294.169H266.301C267.442 294.169 268.367 293.244 268.367 292.102C268.367 290.961 267.442 290.035 266.301 290.035Z" fill="#E1DDDD"></path></g><path d="M324.745 293.604C327.474 293.604 329.687 291.389 329.687 288.657C329.687 285.926 327.474 283.711 324.745 283.711C322.016 283.711 319.803 285.926 319.803 288.657C319.803 291.389 322.016 293.604 324.745 293.604Z" fill="#E1DDDD"></path><path d="M324.745 290.774C325.915 290.774 326.863 289.825 326.863 288.654C326.863 287.484 325.915 286.535 324.745 286.535C323.575 286.535 322.627 287.484 322.627 288.654C322.627 289.825 323.575 290.774 324.745 290.774Z" fill="#E1DDDD"></path><path d="M338.896 241.668H185.697C184.138 241.668 182.873 242.934 182.873 244.495V266.399C182.873 267.96 184.138 269.226 185.697 269.226H338.896C340.456 269.226 341.72 267.96 341.72 266.399V244.495C341.72 242.934 340.456 241.668 338.896 241.668Z" fill="white"></path><mask id="mask14_1954_8362" style="mask-type:luminance" maskUnits="userSpaceOnUse" x="189" y="249" width="119" height="12"><path d="M307.129 249.934H189.229V260.957H307.129V249.934Z" fill="white"></path></mask><g mask="url(#mask14_1954_8362)"><path d="M305.064 249.934H191.294C190.154 249.934 189.229 250.859 189.229 252C189.229 253.142 190.154 254.067 191.294 254.067H305.064C306.204 254.067 307.129 253.142 307.129 252C307.129 250.859 306.204 249.934 305.064 249.934Z" fill="#E1DDDD"></path><path d="M266.301 256.824H191.294C190.154 256.824 189.229 257.749 189.229 258.891C189.229 260.032 190.154 260.958 191.294 260.958H266.301C267.442 260.958 268.367 260.032 268.367 258.891C268.367 257.749 267.442 256.824 266.301 256.824Z" fill="#E1DDDD"></path></g><path d="M324.745 260.392C327.474 260.392 329.687 258.178 329.687 255.446C329.687 252.714 327.474 250.5 324.745 250.5C322.016 250.5 319.803 252.714 319.803 255.446C319.803 258.178 322.016 260.392 324.745 260.392Z" fill="#E1DDDD"></path><path d="M324.745 257.564C325.915 257.564 326.863 256.615 326.863 255.444C326.863 254.273 325.915 253.324 324.745 253.324C323.575 253.324 322.627 254.273 322.627 255.444C322.627 256.615 323.575 257.564 324.745 257.564Z" fill="#E1DDDD"></path><path d="M338.896 208.457H185.697C184.138 208.457 182.873 209.722 182.873 211.283V233.188C182.873 234.749 184.138 236.014 185.697 236.014H338.896C340.456 236.014 341.72 234.749 341.72 233.188V211.283C341.72 209.722 340.456 208.457 338.896 208.457Z" fill="white"></path><mask id="mask15_1954_8362" style="mask-type:luminance" maskUnits="userSpaceOnUse" x="189" y="216" width="119" height="12"><path d="M307.129 216.723H189.229V227.746H307.129V216.723Z" fill="white"></path></mask><g mask="url(#mask15_1954_8362)"><path d="M305.064 216.723H191.294C190.154 216.723 189.229 217.649 189.229 218.79C189.229 219.932 190.154 220.857 191.294 220.857H305.064C306.204 220.857 307.129 219.932 307.129 218.79C307.129 217.649 306.204 216.723 305.064 216.723Z" fill="#E1DDDD"></path><path d="M266.301 223.613H191.294C190.154 223.613 189.229 224.538 189.229 225.679C189.229 226.821 190.154 227.746 191.294 227.746H266.301C267.442 227.746 268.367 226.821 268.367 225.679C268.367 224.538 267.442 223.613 266.301 223.613Z" fill="#E1DDDD"></path></g><path d="M324.745 227.182C327.474 227.182 329.687 224.967 329.687 222.236C329.687 219.504 327.474 217.289 324.745 217.289C322.016 217.289 319.803 219.504 319.803 222.236C319.803 224.967 322.016 227.182 324.745 227.182Z" fill="#E1DDDD"></path><path d="M324.745 224.357C325.915 224.357 326.863 223.408 326.863 222.237C326.863 221.066 325.915 220.117 324.745 220.117C323.575 220.117 322.627 221.066 322.627 222.237C322.627 223.408 323.575 224.357 324.745 224.357Z" fill="#E1DDDD"></path><path d="M271.828 42.4051C271.828 41.2343 270.879 40.2852 269.71 40.2852C268.54 40.2852 267.592 41.2343 267.592 42.4051V55.8305C267.592 57.0012 268.54 57.9503 269.71 57.9503C270.879 57.9503 271.828 57.0012 271.828 55.8305V42.4051Z" fill="#E1DDDD"></path><path d="M281.711 31.1003C281.711 29.9296 280.763 28.9805 279.593 28.9805C278.424 28.9805 277.475 29.9296 277.475 31.1003V55.8314C277.475 57.0022 278.424 57.9512 279.593 57.9512C280.763 57.9512 281.711 57.0022 281.711 55.8314V31.1003Z" fill="#E1DDDD"></path><path d="M291.595 25.4479C291.595 24.2772 290.647 23.3281 289.477 23.3281C288.308 23.3281 287.359 24.2772 287.359 25.4479V55.8318C287.359 57.0026 288.308 57.9516 289.477 57.9516C290.647 57.9516 291.595 57.0026 291.595 55.8318V25.4479Z" fill="#E1DDDD"></path><path d="M301.48 31.1003C301.48 29.9296 300.532 28.9805 299.362 28.9805C298.192 28.9805 297.244 29.9296 297.244 31.1003V55.8314C297.244 57.0022 298.192 57.9512 299.362 57.9512C300.532 57.9512 301.48 57.0022 301.48 55.8314V31.1003Z" fill="#E1DDDD"></path><path d="M311.363 19.7917C311.363 18.6209 310.415 17.6719 309.245 17.6719C308.075 17.6719 307.127 18.6209 307.127 19.7917V55.8284C307.127 56.9991 308.075 57.9482 309.245 57.9482C310.415 57.9482 311.363 56.9991 311.363 55.8284V19.7917Z" fill="#E1DDDD"></path><path fill-rule="evenodd" clip-rule="evenodd" d="M492.637 293.376C491.281 294.817 489.359 295.722 487.221 295.722C483.115 295.722 479.785 292.401 479.785 288.303C479.785 284.205 483.115 280.884 487.221 280.884V267.105C475.538 267.105 465.975 276.646 465.975 288.303C465.975 299.96 475.538 309.501 487.221 309.501C493.359 309.501 498.906 306.911 502.686 302.79L492.637 293.376Z" fill="#E1DDDD"></path><path fill-rule="evenodd" clip-rule="evenodd" d="M487.154 267.105V280.884C491.248 280.884 494.567 284.205 494.567 288.303H508.334C508.334 276.646 498.801 267.105 487.154 267.105Z" fill="#E1DDDD"></path><path fill-rule="evenodd" clip-rule="evenodd" d="M494.282 288.301C494.282 290.708 493.149 292.848 491.389 294.23L500.046 305.26C505.085 301.311 508.333 295.19 508.333 288.301H494.282Z" fill="#E1DDDD"></path><path fill-rule="evenodd" clip-rule="evenodd" d="M20.533 120.489C19.4895 121.594 18.0113 122.288 16.3671 122.288C13.2078 122.288 10.6471 119.741 10.6471 116.6C10.6471 113.458 13.2078 110.912 16.3671 110.912V100.348C7.37981 100.348 0.0234375 107.663 0.0234375 116.6C0.0234375 125.537 7.37981 132.852 16.3671 132.852C21.088 132.852 25.3542 130.865 28.2628 127.706L20.533 120.489Z" fill="#E1DDDD"></path><path fill-rule="evenodd" clip-rule="evenodd" d="M16.2617 100.348V110.912C19.4005 110.912 21.9449 113.458 21.9449 116.6H32.4993C32.4993 107.663 25.191 100.348 16.2617 100.348Z" fill="#E1DDDD"></path><path fill-rule="evenodd" clip-rule="evenodd" d="M21.9605 116.598C21.9605 118.403 21.1105 120.008 19.791 121.044L26.2832 129.317C30.0631 126.355 32.4988 121.764 32.4988 116.598H21.9605Z" fill="#E1DDDD"></path><path fill-rule="evenodd" clip-rule="evenodd" d="M511.869 107.402C511.866 107.409 511.863 107.416 511.859 107.424C511.863 107.417 511.869 107.389 511.869 107.402Z" fill="#E1DDDD"></path><path fill-rule="evenodd" clip-rule="evenodd" d="M511.862 107.411C511.862 107.411 511.861 107.415 511.861 107.418C511.861 107.411 511.873 107.391 511.862 107.411Z" fill="#E1DDDD"></path><path fill-rule="evenodd" clip-rule="evenodd" d="M511.911 107.293C511.902 107.322 511.889 107.348 511.877 107.377C511.883 107.363 511.889 107.351 511.894 107.337C511.747 107.705 511.841 107.466 511.911 107.293Z" fill="#E1DDDD"></path><path fill-rule="evenodd" clip-rule="evenodd" d="M511.878 107.379C511.873 107.391 511.867 107.405 511.862 107.418C511.821 107.497 511.878 107.379 511.878 107.379Z" fill="#E1DDDD"></path><path fill-rule="evenodd" clip-rule="evenodd" d="M511.857 107.424C511.896 107.359 511.848 107.441 511.857 107.424Z" fill="#E1DDDD"></path><path fill-rule="evenodd" clip-rule="evenodd" d="M511.863 107.413L511.865 107.41C511.864 107.412 511.863 107.413 511.863 107.413Z" fill="#E1DDDD"></path><path d="M542.221 70.668H480.801C479.241 70.668 477.977 71.9334 477.977 73.4944V112.357C477.977 113.918 479.241 115.183 480.801 115.183H542.221C543.781 115.183 545.045 113.918 545.045 112.357V73.4944C545.045 71.9334 543.781 70.668 542.221 70.668Z" fill="#E1DDDD"></path><path fill-rule="evenodd" clip-rule="evenodd" d="M503.392 83.3867L483.625 115.183H523.16L503.392 83.3867Z" fill="#E1DDDD"></path><path fill-rule="evenodd" clip-rule="evenodd" d="M522.807 91.8672L505.51 115.185H540.103L522.807 91.8672Z" fill="#E1DDDD"></path><path d="M530.219 91.8673C533.728 91.8673 536.572 89.0201 536.572 85.5079C536.572 81.9957 533.728 79.1484 530.219 79.1484C526.709 79.1484 523.865 81.9957 523.865 85.5079C523.865 89.0201 526.709 91.8673 530.219 91.8673Z" fill="white"></path><path fill-rule="evenodd" clip-rule="evenodd" d="M55.0859 330.687C55.0887 330.694 55.0915 330.701 55.0957 330.71C55.0915 330.703 55.0859 330.675 55.0859 330.687Z" fill="#E1DDDD"></path><path fill-rule="evenodd" clip-rule="evenodd" d="M55.0923 330.7C55.0923 330.702 55.0936 330.704 55.0936 330.707C55.0936 330.7 55.0816 330.68 55.0923 330.7Z" fill="#E1DDDD"></path><path fill-rule="evenodd" clip-rule="evenodd" d="M55.043 330.578C55.0529 330.607 55.0657 330.634 55.077 330.662C55.0713 330.648 55.0657 330.637 55.06 330.622C55.2072 330.991 55.1138 330.751 55.043 330.578Z" fill="#E1DDDD"></path><path fill-rule="evenodd" clip-rule="evenodd" d="M55.0742 330.664C55.0798 330.677 55.0854 330.691 55.091 330.703C55.1318 330.782 55.0742 330.664 55.0742 330.664Z" fill="#E1DDDD"></path><path fill-rule="evenodd" clip-rule="evenodd" d="M55.0978 330.709C55.1062 330.726 55.0585 330.645 55.0978 330.709Z" fill="#E1DDDD"></path><path fill-rule="evenodd" clip-rule="evenodd" d="M55.0925 330.702L55.0898 330.699L55.0925 330.702Z" fill="#E1DDDD"></path><path d="M7.78879 276.289H102.391C103.951 276.289 105.215 277.554 105.215 279.115V339.883C105.215 341.444 103.951 342.709 102.391 342.709H7.78879C6.22917 342.709 4.96484 341.444 4.96484 339.883V279.115C4.96484 277.554 6.22917 276.289 7.78879 276.289Z" fill="#E1DDDD"></path><path fill-rule="evenodd" clip-rule="evenodd" d="M67.9921 295.367L96.9764 342.709H39.0078L67.9921 295.367Z" fill="#E1DDDD"></path><path fill-rule="evenodd" clip-rule="evenodd" d="M38.1062 308.051L63.73 342.711H12.4824L38.1062 308.051Z" fill="#E1DDDD"></path><path d="M27.2047 308.086C21.9409 308.086 17.6738 303.815 17.6738 298.547C17.6738 293.279 21.9409 289.008 27.2047 289.008C32.4684 289.008 36.7355 293.279 36.7355 298.547C36.7355 303.815 32.4684 308.086 27.2047 308.086Z" fill="white"></path><path fill-rule="evenodd" clip-rule="evenodd" d="M410.248 141.501C405.676 144.259 401.184 145.592 399.075 145.048C393.788 143.684 393.302 124.324 397.393 116.692C401.484 109.06 422.516 105.734 423.576 120.855C423.944 126.104 421.742 130.787 418.489 134.609L424.322 161.82H407.378L410.248 141.501Z" fill="#915B3C"></path><path fill-rule="evenodd" clip-rule="evenodd" d="M407.049 107.895C409.283 107.528 415.295 107.277 416.404 107.277C417.113 107.277 417.881 107.439 418.3 106.787C418.644 106.254 418.518 105.352 418.621 104.733C418.74 104.015 418.909 103.305 419.08 102.597C419.567 100.583 420.304 98.667 421.334 96.8679C423.267 93.4925 426.099 90.8486 429.674 89.3101C433.623 87.6113 438.09 87.2223 442.337 87.5669C446.882 87.9355 450.996 89.4371 455.287 90.8502C459.376 92.1967 463.658 92.7268 467.935 92.0692C472.244 91.4067 475.5 89.0693 479.134 86.8508C482.855 84.5795 487.107 83.094 491.506 83.4355C495.611 83.7544 499.396 85.4512 502.791 87.7179C505.967 89.8386 508.588 92.3902 510.068 95.9812C511.66 99.8442 511.659 104.084 509.041 107.498C505.246 112.446 498.202 113.726 492.342 113.599C488.952 113.526 485.623 112.906 482.422 111.78C478.154 110.277 474.466 107.73 470.473 105.664C468.599 104.695 466.662 103.898 464.632 103.325C462.662 102.768 460.721 102.512 458.938 103.704C457.051 104.964 455.36 106.201 453.201 106.99C451.13 107.747 448.936 108.17 446.73 108.153C442.437 108.12 438.205 106.781 434.036 105.885C430.636 105.154 426.998 104.425 423.532 105.128C422.086 105.421 419.973 106.027 419.45 107.531C428.243 109.126 431.696 120.01 429.218 127.999C427.88 132.312 419.838 137.353 416.711 135.085C414.73 133.649 415.933 131.764 416.711 130.519C418.201 128.135 418.711 125.074 415.953 123.414C413.574 121.983 411.073 125.382 411.026 125.378C410.372 125.326 404.722 122.128 400.83 117.462C396.989 117.69 396.407 115.155 397.324 113.083C398.241 111.01 403.964 108.402 407.049 107.895Z" fill="#4E2B17"></path><path fill-rule="evenodd" clip-rule="evenodd" d="M425.733 220.469L391.081 308.248L367.841 382.458H358.664L395.605 220.469H425.733Z" fill="#915B3C"></path><path fill-rule="evenodd" clip-rule="evenodd" d="M432.71 220.469C433.079 251.315 438.46 292.844 439.32 294.768C440.18 296.69 498.678 343.671 498.678 343.671L492.357 350.441C492.357 350.441 423.334 310.161 420.141 304.789C416.947 299.416 406.548 249.979 398.199 220.469H432.71Z" fill="#915B3C"></path><path fill-rule="evenodd" clip-rule="evenodd" d="M497.661 342.402C497.893 341.608 498.729 341.135 499.505 341.419C500.922 341.937 502.993 342.775 503.911 343.546C505.373 344.775 507.771 347.62 507.771 347.62C506.347 349.319 482.176 378.149 482.176 378.149C482.176 378.149 477.247 376.038 479.084 373.211C480.92 370.384 482.089 368.476 482.089 368.476L487.665 348.978C487.774 348.595 488.178 348.379 488.557 348.499L491.532 349.444C491.532 349.444 494.629 347.999 495.873 346.515C496.63 345.612 497.274 343.734 497.661 342.402Z" fill="white"></path><path fill-rule="evenodd" clip-rule="evenodd" d="M369.642 378.241C370.399 377.908 371.298 378.245 371.58 379.023C372.094 380.442 372.784 382.569 372.784 383.768C372.784 385.68 372.148 389.346 372.148 389.346C369.932 389.346 332.329 389.346 332.329 389.346C332.329 389.346 330.776 384.211 334.12 383.801C337.465 383.392 339.676 383.062 339.676 383.062L358.184 374.804C358.548 374.641 358.973 374.811 359.124 375.18L360.314 378.068C360.314 378.068 363.41 379.514 365.345 379.514C366.523 379.514 368.374 378.799 369.642 378.241Z" fill="white"></path><path fill-rule="evenodd" clip-rule="evenodd" d="M402.436 374.814L358.803 370.075L393.964 220.469H430.221L402.436 374.814Z" fill="#7BA2B6"></path><path fill-rule="evenodd" clip-rule="evenodd" d="M489.655 332.748L461.034 366.655C461.034 366.655 415.816 317.226 408.309 302.15C400.803 287.074 394.812 220.469 394.812 220.469H438.81C438.81 220.469 442.081 279.065 443.22 281.792C444.36 284.518 489.655 332.748 489.655 332.748Z" fill="#9ACAE3"></path><path fill-rule="evenodd" clip-rule="evenodd" d="M342.878 139.888L369.638 147.928L362.805 159.32L341.999 147.064C332.287 146.485 327.698 145.527 328.232 144.188C328.684 143.059 329.756 142.867 330.744 142.69C331.513 142.552 332.231 142.423 332.564 141.868C333.325 140.601 330.66 137.301 327.997 134.278C325.334 131.255 327.465 131.114 328.752 131.357C333.177 133.155 337.886 135.999 342.878 139.888ZM349.483 211.699L372.002 195.148L376.981 207.465L354.68 216.721C348.373 224.136 344.846 227.227 344.1 225.994C343.47 224.955 343.963 223.982 344.416 223.085C344.769 222.387 345.098 221.736 344.856 221.136C344.301 219.765 340.065 219.909 336.051 220.219C332.036 220.527 333.206 218.74 334.174 217.856C338.272 215.401 343.374 213.349 349.483 211.699Z" fill="#915B3C"></path><path fill-rule="evenodd" clip-rule="evenodd" d="M406.981 150.577C394.718 173.463 376.984 191.008 351.275 209.245L361.01 220.231C389.715 209.554 404.864 203.112 412.304 181.489C414.171 176.062 415.476 158.762 416.596 149.66L406.981 150.577Z" fill="#C6821D"></path><path fill-rule="evenodd" clip-rule="evenodd" d="M441.265 226.826H386.904C386.904 226.826 405.375 170.445 405.775 149.433C405.789 148.718 407.107 147.46 407.689 147.625C414.085 149.433 421.376 146.273 421.376 146.273C434.264 167.018 438.72 192.559 441.265 226.826Z" fill="#E1DDDD"></path><path fill-rule="evenodd" clip-rule="evenodd" d="M407.74 177.926C399.25 214.377 399.641 244.216 418.385 244.216H447.37C451.974 213.252 439.875 170.318 428.658 148.663C428.23 147.836 427.318 146.277 425.17 146.277H416.748C416.744 146.288 416.741 146.299 416.736 146.31C414.203 146.331 411.411 146.424 408.389 146.524C392.828 147.041 371.131 147.762 346.717 139.918L343.838 154.314C365.874 168.498 388.188 179.487 407.74 177.926Z" fill="#EEA941"></path><path fill-rule="evenodd" clip-rule="evenodd" d="M246.367 193.083C250.939 195.841 255.431 197.174 257.54 196.63C262.827 195.266 263.313 175.906 259.222 168.274C255.131 160.642 234.099 157.316 233.039 172.437C232.671 177.685 234.873 182.369 238.126 186.191L232.293 213.402H249.237L246.367 193.083Z" fill="#57331F"></path><path fill-rule="evenodd" clip-rule="evenodd" d="M255.404 163.242C255.016 163.01 254.204 162.521 253.792 162.343C253.695 162.301 253.013 161.814 252.995 161.82C252.479 161.995 250.985 162.638 250.857 163.194C250.837 163.236 250.817 163.275 250.798 163.31C250.586 163.695 250.392 164.09 250.207 164.49C249.8 165.367 249.449 166.284 249.114 167.193C248.461 168.965 247.893 170.778 247.372 172.595C246.84 174.445 246.39 176.316 245.885 178.173C245.159 180.846 244.23 183.453 243.509 186.124C243.048 187.83 242.792 189.556 242.913 191.312C242.914 191.333 242.915 191.354 242.917 191.375C242.918 191.384 242.919 191.392 242.919 191.401C242.94 191.671 242.969 191.942 243.008 192.213C243.042 192.445 243.077 192.678 243.113 192.911C243.772 191.596 244.275 190.148 244.809 188.773C244.861 188.638 244.911 188.503 244.959 188.367C245.131 188.088 245.307 187.811 245.484 187.535C246.603 185.796 247.726 184.064 248.799 182.293C250.729 179.109 252.64 175.858 254.928 172.934C255.604 172.07 256.295 171.22 256.962 170.349C257.341 169.854 257.711 169.35 258.069 168.838C258.325 168.471 259.436 167.193 259.034 166.426C258.828 166.033 256.411 163.843 255.404 163.242Z" fill="#2C2C2C"></path><path fill-rule="evenodd" clip-rule="evenodd" d="M253.915 162.407C254.292 162.534 254.109 161.747 253.743 161.471C252.05 160.189 245.575 159.724 239.94 160.895C236.166 161.679 231.776 163.631 228.761 166.14C226.043 168.403 224.174 172.029 223.212 175.533C222.201 179.212 222.048 183.047 222.611 186.82C222.735 187.649 223.001 188.438 223.149 189.249C223.315 190.163 223.401 191.042 223.698 191.931C223.88 192.475 224.19 193.008 224.345 193.555C224.522 194.18 224.414 194.757 224.285 195.392C224.074 196.427 223.813 197.46 223.442 198.449C222.884 199.933 222.208 201.323 221.784 202.864C221.219 204.913 218.858 211.583 220.584 213.401H253.425C252.598 211.144 250.116 208.486 249.613 206.069C249.317 204.646 249.177 201.536 249.146 201.423C248.406 196.317 246.96 193.879 246.055 192.994C245.15 192.109 243.945 191.837 243.883 191.069C243.626 187.895 244.887 184.853 245.812 181.89C246.915 178.358 247.722 174.739 248.859 171.22C249.362 169.662 251.955 161.747 253.915 162.407Z" fill="#915B3C"></path><path fill-rule="evenodd" clip-rule="evenodd" d="M241.161 177.465C240.894 172.091 241.161 169.992 242.399 166.059H241.636C240.429 167.62 239.418 172.394 240.553 177.465H241.161ZM226.195 177.212C226.062 176.886 225.926 176.551 225.785 176.209L225.299 176.442C226.831 182.05 228.694 186.379 235.092 190.008L235.589 189.659C229.539 185.401 228.241 182.223 226.195 177.212ZM235.267 170.505C235.331 170.991 235.392 171.465 235.452 171.928C236.372 179.032 236.955 183.537 242.082 191.707L241.501 191.885C235.881 184.308 234.99 178.123 234.725 170.549L235.267 170.505ZM229.732 193.532L229.235 194.137C231.725 194.658 233.418 196.491 235.358 198.592C237.412 200.815 239.743 203.338 243.588 204.927L244.302 204.494C240.105 202.309 238.152 200.139 236.447 198.243C234.682 196.281 233.182 194.613 229.732 193.532Z" fill="black" fill-opacity="0.2"></path><path d="M225.234 395C255.256 395 279.594 371.748 279.594 343.065C279.594 314.382 255.256 291.129 225.234 291.129C195.211 291.129 170.873 314.382 170.873 343.065C170.873 371.748 195.211 395 225.234 395Z" fill="#C5CFD6"></path><path fill-rule="evenodd" clip-rule="evenodd" d="M309.748 340.292C312.373 349.497 318.916 366.946 327.961 386.984L336.557 384.474C329.037 338.365 322.778 307.838 319.193 298.547C316.825 292.408 298.905 293.128 300.967 305.48C301.832 310.659 305.252 324.529 309.748 340.292ZM274.417 307.634C260.4 310.54 231.336 320.816 223.036 324.099C217.821 326.163 221.183 333.161 225.633 332.549C226.386 332.445 229.053 332.146 233.03 331.701C245.807 330.27 272.119 327.324 292.076 324.45C302.583 322.936 296.931 303.236 286.02 305.321C282.35 306.022 278.446 306.798 274.417 307.634Z" fill="#57331F"></path><path fill-rule="evenodd" clip-rule="evenodd" d="M319.742 293.347C318.309 288.666 253.163 272.051 253.163 272.051H247.824V277.03L292.716 299.903C292.656 300.641 292.692 301.421 292.837 302.244C292.513 319.2 299.764 331.867 306.943 344.409C311.637 352.61 316.301 360.757 318.795 370.015L335.288 367.553C334.808 366.323 334.048 360.778 333.009 353.197C330.391 334.08 325.997 302.017 319.835 293.534C319.813 293.505 319.792 293.475 319.769 293.446C319.761 293.413 319.752 293.38 319.742 293.347Z" fill="#7C9842"></path><path fill-rule="evenodd" clip-rule="evenodd" d="M251.554 313.487C247.446 312.664 243.664 311.929 240.427 311.361C219.52 307.691 213.424 296.49 217.029 272.051H255.549C261.841 273.86 294.542 287.586 311.509 294.886C322.738 299.718 319.199 317.136 312.839 321.668C312.804 321.947 312.69 322.135 312.486 322.22C288.376 332.221 267.816 331.475 254.614 330.996C249.084 330.795 244.845 330.641 242.176 331.344L237.995 318.142L251.554 313.487Z" fill="#94B550"></path><path fill-rule="evenodd" clip-rule="evenodd" d="M227.441 323.416C227.409 322.59 226.712 321.929 225.89 322.016C224.391 322.176 222.178 322.488 221.101 323.013C219.385 323.851 216.371 326.031 216.371 326.031C217.342 328.024 233.826 361.851 233.826 361.851C233.826 361.851 239.119 360.996 238.02 357.808C236.923 354.62 236.249 352.486 236.249 352.486L235.552 332.217C235.538 331.819 235.199 331.511 234.802 331.536L231.686 331.732C231.686 331.732 229.031 329.581 228.182 327.84C227.666 326.78 227.496 324.802 227.441 323.416Z" fill="white"></path><path fill-rule="evenodd" clip-rule="evenodd" d="M325.801 382.48C325.044 382.147 324.145 382.484 323.863 383.262C323.349 384.68 322.66 386.808 322.66 388.007C322.66 389.918 323.296 393.585 323.296 393.585C325.511 393.585 363.115 393.585 363.115 393.585C363.115 393.585 364.667 388.449 361.323 388.039C357.979 387.63 355.767 387.3 355.767 387.3L337.259 379.042C336.896 378.88 336.471 379.05 336.319 379.418L335.129 382.307C335.129 382.307 332.034 383.752 330.099 383.752C328.92 383.752 327.069 383.038 325.801 382.48Z" fill="white"></path><path fill-rule="evenodd" clip-rule="evenodd" d="M182.448 303.781C184.517 299.581 194.854 245.516 194.854 245.516L210.313 245.574C210.313 245.574 192.652 302.845 191.563 305.546C190.148 309.055 192.551 314.153 194.181 317.611C194.433 318.146 194.666 318.641 194.864 319.086C192.603 320.098 191.517 318.874 190.372 317.584C189.079 316.126 187.71 314.585 184.489 316.085C183.244 316.664 182.066 317.349 180.916 318.019C176.941 320.331 173.289 322.455 168.322 319.387C167.535 318.901 166.672 317.07 168.757 315.639C173.951 312.075 181.437 305.835 182.448 303.781ZM312.648 282.715L292.649 263.189L286.007 274.692L306.804 286.964C312.018 295.185 315.081 298.738 315.991 297.621C316.759 296.679 316.407 295.647 316.083 294.696C315.83 293.956 315.595 293.265 315.919 292.704C316.658 291.424 320.833 292.157 324.765 293.023C328.698 293.887 327.788 291.954 326.952 290.945C323.235 287.943 318.467 285.2 312.648 282.715Z" fill="#57331F"></path><path fill-rule="evenodd" clip-rule="evenodd" d="M241.961 201.626L248.065 200.578C257.682 234.602 307.094 257.794 310.127 270.513C311.239 275.178 307.885 277.536 309.618 278.956L301.682 284.77C300.339 283.201 297.471 286.071 291.483 284.063C285.495 282.056 241.961 241.913 241.961 201.626Z" fill="#151515"></path><path fill-rule="evenodd" clip-rule="evenodd" d="M231.103 194.523C229.548 194.414 228.198 195.588 228.089 197.145L227.8 201.284C216.311 210.133 187.836 236.576 180.416 285.801C179.637 290.971 181.046 293.741 182.172 295.954C182.943 297.467 183.581 298.721 183.295 300.304L193.679 303.173C193.679 302.004 194.988 301.115 196.677 299.967C199.132 298.299 202.39 296.085 203.595 291.672C204.737 287.49 206.409 282.265 208.407 276.454C208.595 284.151 210.054 291.229 213.231 297.093C221.157 311.72 266.963 295.678 271.748 280.756C274.302 272.793 270.678 266.108 265.886 257.267C259.803 246.044 251.836 231.346 252.23 206.15L252.738 198.871C252.847 197.313 251.675 195.963 250.119 195.854L231.103 194.523Z" fill="#363636"></path><path fill-rule="evenodd" clip-rule="evenodd" d="M130.586 141.501C135.157 144.259 139.649 145.592 141.758 145.048C147.045 143.684 147.531 124.324 143.44 116.692C139.349 109.06 118.318 105.734 117.258 120.855C116.89 126.104 119.092 130.787 122.345 134.609L116.512 161.82H133.455L130.586 141.501Z" fill="#E5B5A1"></path><path fill-rule="evenodd" clip-rule="evenodd" d="M122.865 117.303C132.643 117.373 139.446 116.961 143.339 115.89C143.162 112.573 139.717 108.824 130.631 108.824C120.523 108.824 115.1 114.721 115.1 121.543C115.1 127.775 119.108 135.366 122.16 135.675C122.949 135.502 123.624 134.551 124.294 133.24C123.038 132.644 122.16 131.269 122.16 129.669C122.16 127.522 123.74 125.783 125.689 125.783C126.397 125.783 127.057 126.012 127.609 126.407C128.892 124.336 130.499 122.788 132.749 122.956L131.337 118.716L122.865 118.01V117.303Z" fill="#4A312C"></path><path fill-rule="evenodd" clip-rule="evenodd" d="M89.2656 289.777C89.2656 289.777 114.67 296.888 133.102 296.888C151.533 296.888 167.343 285.936 167.343 285.936C167.343 285.936 142.482 278.637 126.395 278.637C110.309 278.637 89.2656 289.777 89.2656 289.777Z" fill="#151515"></path><path fill-rule="evenodd" clip-rule="evenodd" d="M147.763 303.724C147.599 303.479 147.461 303.211 147.352 302.922C145.088 296.929 108.827 232.288 105.215 220.469H146.039C148.786 229.455 161.148 285.844 162.888 297.095C168.377 314.841 179.679 372.315 181.122 376.296C182.64 380.485 174.099 384.848 171.824 379.699C168.203 371.505 159.575 348.834 155.733 334.991C152.132 322.014 149.199 310.338 147.763 303.724Z" fill="#DCAE92"></path><path fill-rule="evenodd" clip-rule="evenodd" d="M147.763 303.724C147.599 303.479 147.461 303.211 147.352 302.922C145.088 296.929 108.827 232.288 105.215 220.469H146.039C148.786 229.455 161.148 285.844 162.888 297.095C168.377 314.841 179.679 372.315 181.122 376.296C182.64 380.485 174.099 384.848 171.824 379.699C168.203 371.505 159.575 348.834 155.733 334.991C152.132 322.014 149.199 310.338 147.763 303.724Z" fill="black" fill-opacity="0.1"></path><path fill-rule="evenodd" clip-rule="evenodd" d="M114.363 311.617C97.7854 315.81 37.1476 323.392 32.9863 324.581C28.7057 325.804 24.9524 316.973 30.2435 315.06C38.6625 312.016 61.8607 304.983 75.9258 302.113C87.239 299.804 97.5623 297.921 104.493 296.818C103.906 277.332 101.222 230.569 102.981 220.469H139.103C137.416 230.154 123.155 300.823 120.505 307.896C119.663 310.421 117.153 311.538 114.363 311.617Z" fill="#E5B5A1"></path><path fill-rule="evenodd" clip-rule="evenodd" d="M31.7444 314.498C31.941 313.694 31.4529 312.866 30.6386 312.723C29.1535 312.463 26.9408 312.153 25.7609 312.361C23.8803 312.693 20.3828 313.957 20.3828 313.957C20.7675 316.14 27.2973 353.205 27.2973 353.205C27.2973 353.205 32.6201 353.843 32.4424 350.476C32.2646 347.109 32.2052 344.871 32.2052 344.871L37.1168 325.195C37.2132 324.809 36.972 324.419 36.5835 324.334L33.5349 323.662C33.5349 323.662 31.5749 320.862 31.2389 318.954C31.0343 317.793 31.4152 315.844 31.7444 314.498Z" fill="white"></path><path fill-rule="evenodd" clip-rule="evenodd" d="M171.19 378.241C170.433 377.908 169.534 378.245 169.252 379.023C168.738 380.442 168.049 382.569 168.049 383.768C168.049 385.68 168.685 389.346 168.685 389.346C170.9 389.346 208.504 389.346 208.504 389.346C208.504 389.346 210.056 384.211 206.712 383.801C203.368 383.392 201.156 383.062 201.156 383.062L182.648 374.804C182.285 374.641 181.86 374.811 181.708 375.18L180.518 378.068C180.518 378.068 177.423 379.514 175.488 379.514C174.309 379.514 172.458 378.799 171.19 378.241Z" fill="white"></path><path fill-rule="evenodd" clip-rule="evenodd" d="M103.097 220.468C103.097 220.468 126.973 213.631 148.28 220.468C153.222 243.035 165.23 251.992 167.342 286.591C143.338 298.529 113.687 278.078 88.9772 289.719C81.9174 273.436 91.8011 234.222 103.097 220.468Z" fill="#363636"></path><path fill-rule="evenodd" clip-rule="evenodd" d="M164.327 229.839C150.92 257.786 94.4785 238.916 94.4785 238.916C94.4785 234.073 96.3976 229.218 98.4132 224.119C100.575 218.651 102.847 212.903 102.983 206.589C103.233 194.973 105.403 159.778 114.459 147.889C114.625 147.352 114.792 146.813 114.961 146.273L115.588 146.568C115.686 146.467 115.784 146.369 115.884 146.273L135.645 149.331C135.645 158.277 141.364 166.76 146.514 174.396C147.766 176.254 148.986 178.062 150.081 179.814C151.514 182.109 153.132 184.445 154.79 186.839C163.188 198.963 172.612 212.57 164.327 229.839Z" fill="#9ACAE3"></path><path fill-rule="evenodd" clip-rule="evenodd" d="M139.006 224.557C140.328 217.732 141.185 213.174 141.578 210.886C152.106 222.793 158.188 228.815 159.824 228.954C162.901 229.213 165.175 226.482 165.823 227.25C166.892 230.43 163.87 238.389 158.093 239.546C155.335 240.099 151.065 234.405 149.307 232.388C148.615 231.594 145.182 228.984 139.006 224.557ZM157.191 188.164C159.921 188.164 161.386 189.293 163 191.571C164.613 193.85 166.14 204.594 163.55 204.594C160.959 204.594 150.105 200.441 150.105 197.648C150.105 194.856 157.511 193.674 157.511 191.571C157.511 189.469 154.463 188.164 157.191 188.164Z" fill="#E5B5A1"></path><path fill-rule="evenodd" clip-rule="evenodd" d="M111.263 159.504C104.332 188.426 107.155 212.82 133.496 234.946C133.187 236.058 133.001 236.722 133.001 236.722C102.082 215.093 102.067 188.883 111.263 159.504Z" fill="black" fill-opacity="0.2"></path></g></g></svg>